<svg width="24" height="24" viewBox="0 0 24 24" fill="none" xmlns="http://www.w3.org/2000/svg">
<g clip-path="url(#clip0_524_6677)">
<path d="M0.636719 12C0.636719 16.9125 3.78672 21.075 8.13672 22.6125V1.38751C3.78672 2.92501 0.636719 7.08751 0.636719 12Z" fill="#75A843"/>
<path d="M23.1367 12C23.1367 7.08751 19.9867 2.92501 15.6367 1.38751V22.6125C20.0242 21.075 23.1367 16.9125 23.1367 12Z" fill="#ED4C5C"/>
<path d="M8.13672 22.6125C9.29922 23.025 10.5742 23.25 11.8867 23.25C13.1992 23.25 14.4742 23.025 15.6367 22.6125V1.3875C14.4742 0.975 13.1992 0.75 11.8867 0.75C10.5742 0.75 9.29922 0.975 8.13672 1.3875V22.6125Z" fill="white"/>
</g>
<defs>
<clipPath id="clip0_524_6677">
<rect width="24" height="24" fill="white"/>
</clipPath>
</defs>
</svg>
