<svg width="24" height="24" viewBox="0 0 24 24" fill="none" xmlns="http://www.w3.org/2000/svg">
<g clip-path="url(#clip0_524_6660)">
<mask id="mask0_524_6660" style="mask-type:luminance" maskUnits="userSpaceOnUse" x="0" y="0" width="24" height="24">
<path d="M12 24C18.6274 24 24 18.6274 24 12C24 5.37258 18.6274 0 12 0C5.37258 0 0 5.37258 0 12C0 18.6274 5.37258 24 12 24Z" fill="white"/>
</mask>
<g mask="url(#mask0_524_6660)">
<path d="M0 0H24V24H0V0Z" fill="#6DA544"/>
<path d="M12 4.6969L21.9141 12L12 19.3031L2.08594 12L12 4.6969Z" fill="#FFDA44"/>
<path d="M8.16632 10.3594C7.9331 10.8958 7.81799 11.4761 7.82882 12.061L15.4226 14.3953C15.7571 13.9175 15.9871 13.3744 16.0976 12.8016C14.1944 9.74066 10.4866 9.03753 8.17101 10.3641L8.16632 10.3594Z" fill="#EEEEEE"/>
<path d="M11.9859 7.82814C11.3004 7.82987 10.6258 8.00053 10.0219 8.32502C9.19069 8.77348 8.53626 9.4907 8.16562 10.3594C9.58587 10.0578 11.0596 10.1243 12.4469 10.5526C13.8343 10.9808 15.0891 11.7566 16.0922 12.8063C16.2785 11.8573 16.1294 10.8731 15.6703 10.0219C15.3122 9.357 14.7804 8.80177 14.1315 8.41542C13.4827 8.02908 12.7411 7.8261 11.9859 7.82814ZM9.9375 11.7422C9.2222 11.7398 8.51078 11.8473 7.82812 12.061C7.83601 12.7302 8.00483 13.3878 8.32031 13.9781C8.57992 14.4609 8.93212 14.8878 9.35678 15.2344C9.78144 15.581 10.2702 15.8405 10.7952 15.998C11.3202 16.1556 11.8712 16.2082 12.4165 16.1528C12.9618 16.0974 13.4909 15.935 13.9734 15.675C14.5464 15.3665 15.0392 14.9283 15.4125 14.3953C14.7546 13.5739 13.9217 12.9095 12.9746 12.4505C12.0275 11.9915 10.9899 11.7496 9.9375 11.7422Z" fill="#0052B4"/>
</g>
</g>
<defs>
<clipPath id="clip0_524_6660">
<rect width="24" height="24" fill="white"/>
</clipPath>
</defs>
</svg>
