<svg width="526" height="520" viewBox="0 0 526 520" fill="none" xmlns="http://www.w3.org/2000/svg">
<mask id="mask0_490_2723" style="mask-type:luminance" maskUnits="userSpaceOnUse" x="137" y="58" width="426" height="462">
<path d="M560.536 196.658L560.536 196.658C578.976 355.239 465.452 498.907 306.712 517.346L306.712 517.346C258.179 523.037 210.895 516.26 168.393 499.473C443.497 465.821 506.577 236.59 508.511 229.335L507.598 228.952C450.543 325.487 385.452 377.683 320.926 402.512C256.557 427.28 192.696 424.835 137.846 411.926C140.276 380.474 146.52 349.821 156.42 320.6L156.421 320.597C173.585 268.785 201.977 221.303 238.713 181.52C298.546 116.874 380.836 72.4409 475.319 61.5329L475.322 61.5325C485.822 60.2597 496.162 59.4608 506.654 59.2914C535.43 98.373 554.614 145.278 560.536 196.658Z" stroke="white"/>
</mask>
<g mask="url(#mask0_490_2723)">
<path d="M560.536 196.658L560.536 196.658C578.976 355.239 465.452 498.907 306.712 517.346L306.712 517.346C258.179 523.037 210.895 516.26 168.393 499.473C443.497 465.821 506.577 236.59 508.511 229.335L507.598 228.952C450.543 325.487 385.452 377.683 320.926 402.512C256.557 427.28 192.696 424.835 137.846 411.926C140.276 380.474 146.52 349.821 156.42 320.6L156.421 320.597C173.585 268.785 201.977 221.303 238.713 181.52C298.546 116.874 380.836 72.4409 475.319 61.5329L475.322 61.5325C485.822 60.2597 496.162 59.4608 506.654 59.2914C535.43 98.373 554.614 145.278 560.536 196.658Z" stroke="url(#paint0_linear_490_2723)"/>
</g>
<mask id="mask1_490_2723" style="mask-type:luminance" maskUnits="userSpaceOnUse" x="0" y="0" width="227" height="353">
<path d="M56.2118 95.8081L55.2651 95.5182L55.7179 95.7302C55.2651 95.5182 55.2647 95.5189 55.2642 95.5201L55.2619 95.525L55.2532 95.5437L55.2198 95.6162C55.1906 95.6801 55.1474 95.7751 55.0912 95.9006C54.9789 96.1516 54.8145 96.5247 54.6052 97.0158C54.1867 97.998 53.5885 99.4521 52.8677 101.344C51.426 105.129 49.4937 110.666 47.5266 117.688C43.5926 131.731 39.5185 151.715 38.9551 175.487C37.8294 222.988 50.724 285.599 106.729 346.122L105.331 351.994C98.1729 348.375 91.3062 344.15 84.4326 339.463C-4.48479 277.139 -26.2726 154.577 36.0499 65.4988L36.0506 65.4979C56.1848 36.5749 82.8528 14.6653 112.558 0.562888C118.721 4.05162 124.58 7.85617 130.599 12.133L130.602 12.1353C176.196 43.9709 208.379 87.7787 226.038 136.392C179.359 181.061 143.03 236.07 120.853 297.777C98.1661 280.115 77.9318 256.095 65.3802 223.425C52.7279 190.494 47.8706 148.743 56.2118 95.8081Z" stroke="white"/>
</mask>
<g mask="url(#mask1_490_2723)">
<path d="M55.7308 96.6083L54.7829 96.3226L55.2366 96.5328C54.7829 96.3226 54.7826 96.3233 54.782 96.3245L54.7798 96.3294L54.7712 96.3482L54.7381 96.4208C54.7273 96.4446 54.7147 96.4726 54.7002 96.5048C54.6755 96.5596 54.6456 96.6267 54.6105 96.7059C54.4991 96.9575 54.3361 97.3315 54.1287 97.8238C53.7138 98.8082 53.1211 100.265 52.4073 102.162C50.9799 105.954 49.0683 111.502 47.1276 118.535C43.2465 132.601 39.2478 152.61 38.775 176.392C37.8302 223.913 50.9657 286.483 107.211 346.765L105.812 352.641C98.497 349.027 91.631 344.952 84.9164 340.267L84.9156 340.266C-4.32441 278.263 -26.5934 155.699 35.4089 66.4607L35.4097 66.4595C55.383 37.5382 82.0493 15.4696 111.753 1.20705C117.769 4.69802 123.782 8.501 129.638 12.6158L129.64 12.6171C175.395 44.4534 207.738 88.1021 225.556 136.555C179.197 181.383 143.029 236.552 121.17 298.42C98.4048 280.837 78.091 256.897 65.4203 224.267C52.6478 191.375 47.6302 149.623 55.7308 96.6083Z" stroke="url(#paint1_linear_490_2723)"/>
</g>
<defs>
<linearGradient id="paint0_linear_490_2723" x1="350.157" y1="58.7875" x2="350.157" y2="519.825" gradientUnits="userSpaceOnUse">
<stop stop-color="white" stop-opacity="0.57"/>
<stop offset="1" stop-color="white" stop-opacity="0"/>
</linearGradient>
<linearGradient id="paint1_linear_490_2723" x1="112.959" y1="0.641968" x2="112.959" y2="353.366" gradientUnits="userSpaceOnUse">
<stop stop-color="white" stop-opacity="0.57"/>
<stop offset="1" stop-color="white" stop-opacity="0"/>
</linearGradient>
</defs>
</svg>
