<svg width="122" height="121" viewBox="0 0 122 121" fill="none" xmlns="http://www.w3.org/2000/svg">
<path d="M54.8435 117.397L55.4302 110.878L56.2196 110.949L55.6329 117.468L54.8435 117.397Z" fill="#00292E"/>
<path d="M42.9417 114.939L44.6831 108.63L45.4225 108.834L47.4935 114.736L47.555 114.754L48.9222 109.799L49.6864 110.01L47.945 116.32L47.2056 116.116L45.1257 110.197L45.064 110.18L43.6934 115.147L42.9417 114.939Z" fill="#00292E"/>
<path d="M34.2322 108.98L34.9463 109.324C34.8896 109.55 34.8766 109.766 34.9073 109.972C34.9361 110.177 35 110.369 35.0988 110.547C35.1949 110.725 35.3202 110.885 35.4748 111.026C35.6293 111.166 35.8045 111.284 36.0003 111.378C36.3574 111.55 36.7243 111.616 37.1011 111.575C37.4759 111.533 37.8334 111.378 38.1734 111.109C38.5115 110.839 38.8035 110.448 39.0494 109.938C39.2953 109.427 39.4184 108.955 39.4186 108.523C39.417 108.089 39.3156 107.713 39.1146 107.394C38.9116 107.074 38.6316 106.828 38.2745 106.656C38.0787 106.561 37.8776 106.498 37.6713 106.464C37.465 106.431 37.2625 106.432 37.0638 106.466C36.8623 106.502 36.6723 106.572 36.4937 106.678C36.3123 106.784 36.1515 106.929 36.0113 107.112L35.2972 106.768C35.4961 106.493 35.7239 106.27 35.9806 106.101C36.2373 105.931 36.5114 105.814 36.803 105.748C37.0937 105.685 37.3913 105.673 37.6959 105.714C37.9986 105.753 38.2987 105.844 38.5962 105.988C39.0992 106.23 39.4873 106.568 39.7606 107.002C40.0339 107.437 40.1737 107.934 40.1802 108.496C40.1866 109.057 40.04 109.648 39.7405 110.27C39.441 110.892 39.0698 111.376 38.627 111.721C38.1843 112.066 37.7079 112.267 37.198 112.324C36.688 112.381 36.1816 112.288 35.6786 112.046C35.3811 111.903 35.1225 111.725 34.9031 111.513C34.6817 111.3 34.5056 111.059 34.3749 110.79C34.2432 110.524 34.1637 110.237 34.1362 109.931C34.1079 109.626 34.1399 109.309 34.2322 108.98Z" fill="#00292E"/>
<path d="M26.6525 102.435C27.0583 101.876 27.5098 101.467 28.007 101.206C28.5043 100.946 29.0089 100.833 29.5208 100.868C30.0328 100.903 30.5145 101.085 30.9662 101.413C31.4178 101.741 31.7393 102.143 31.9306 102.619C32.122 103.095 32.1707 103.61 32.0768 104.163C31.9829 104.717 31.7331 105.273 31.3273 105.831C30.9216 106.39 30.47 106.799 29.9728 107.059C29.4756 107.32 28.971 107.432 28.459 107.397C27.9471 107.363 27.4653 107.181 27.0136 106.853C26.562 106.525 26.2405 106.123 26.0492 105.647C25.8579 105.17 25.8091 104.656 25.903 104.102C25.9969 103.549 26.2467 102.993 26.6525 102.435ZM27.273 102.885C26.9399 103.344 26.7355 103.787 26.6597 104.214C26.5822 104.639 26.6147 105.028 26.7573 105.379C26.8981 105.729 27.1289 106.02 27.4495 106.253C27.7701 106.486 28.1194 106.616 28.4974 106.643C28.8737 106.669 29.2532 106.58 29.6358 106.376C30.0166 106.171 30.3736 105.839 30.7068 105.38C31.0399 104.922 31.2452 104.48 31.3227 104.054C31.3985 103.627 31.366 103.239 31.2251 102.889C31.0825 102.538 30.851 102.246 30.5303 102.013C30.2097 101.78 29.8613 101.65 29.485 101.624C29.107 101.597 28.7275 101.686 28.3466 101.892C27.964 102.096 27.6062 102.427 27.273 102.885Z" fill="#00292E"/>
<path d="M25.5587 97.0618L20.8277 101.585L19.2463 99.9311C18.9312 99.6015 18.7283 99.2752 18.6376 98.9522C18.5453 98.6307 18.5446 98.3262 18.6355 98.0389C18.7248 97.7531 18.8849 97.4997 19.1159 97.2789C19.3192 97.0845 19.5217 96.9602 19.7233 96.906C19.9235 96.8502 20.118 96.844 20.307 96.8874C20.4944 96.9293 20.6714 97.0003 20.8379 97.1005L20.8841 97.0563C20.7549 96.9028 20.6666 96.7086 20.6191 96.474C20.5717 96.2393 20.587 95.9903 20.6653 95.7268C20.7435 95.4633 20.9074 95.2123 21.1569 94.9738C21.3941 94.747 21.6589 94.597 21.9514 94.5237C22.2439 94.4504 22.5567 94.477 22.89 94.6035C23.2232 94.73 23.568 94.9797 23.9243 95.3524L25.5587 97.0618ZM24.5027 96.9748L23.4161 95.8383C23.0583 95.464 22.7319 95.2676 22.4369 95.2489C22.139 95.2302 21.886 95.3202 21.6781 95.5189C21.518 95.6721 21.4092 95.8542 21.3517 96.0654C21.2926 96.2781 21.2945 96.4989 21.3571 96.7279C21.4183 96.9583 21.5475 97.1767 21.7448 97.3831L22.858 98.5474L24.5027 96.9748ZM22.359 99.0244L21.343 97.9618C21.1781 97.7893 20.9955 97.6662 20.7952 97.5924C20.5935 97.517 20.392 97.4974 20.1907 97.5336C19.988 97.5682 19.8035 97.665 19.6372 97.8241C19.4293 98.0228 19.3221 98.2638 19.3158 98.547C19.3079 98.8316 19.4541 99.131 19.7545 99.4452L20.7881 100.526L22.359 99.0244Z" fill="#00292E"/>
<path d="M12.5972 91.4711L18.0599 87.8652L18.4966 88.5267L13.0339 92.1326L12.5972 91.4711Z" fill="#00292E"/>
<path d="M9.99176 79.0784C10.6265 78.807 11.2241 78.6872 11.7845 78.7188C12.3448 78.7504 12.8358 78.9124 13.2574 79.2049C13.679 79.4974 13.9995 79.9003 14.2189 80.4136C14.4383 80.9269 14.5081 81.437 14.4281 81.9439C14.3482 82.4508 14.126 82.9176 13.7616 83.3445C13.3972 83.7713 12.8976 84.1204 12.2628 84.3918C11.628 84.6631 11.0305 84.7829 10.4701 84.7513C9.90975 84.7197 9.41877 84.5577 8.99716 84.2652C8.57554 83.9727 8.25504 83.5698 8.03564 83.0565C7.81623 82.5432 7.74651 82.0331 7.82646 81.5262C7.9064 81.0193 8.12858 80.5525 8.49298 80.1256C8.85738 79.6988 9.35697 79.3497 9.99176 79.0784ZM10.2932 79.7837C9.77207 80.0064 9.36949 80.2816 9.08548 80.6092C8.80064 80.9349 8.62936 81.285 8.57164 81.6596C8.51309 82.0321 8.56169 82.4007 8.71745 82.7651C8.8732 83.1295 9.10639 83.4203 9.41701 83.6374C9.72679 83.8526 10.0982 83.9707 10.5313 83.9918C10.9635 84.011 11.4402 83.9092 11.9613 83.6864C12.4825 83.4637 12.8855 83.1895 13.1703 82.8638C13.4544 82.5362 13.6256 82.1861 13.6842 81.8135C13.7419 81.4389 13.6929 81.0695 13.5371 80.705C13.3814 80.3406 13.1486 80.0508 12.8388 79.8357C12.5282 79.6185 12.1568 79.5004 11.7246 79.4812C11.2915 79.4601 10.8144 79.5609 10.2932 79.7837Z" fill="#00292E"/>
<path d="M6.8855 61.2678L7.58791 61.2363L7.71639 64.097L7.01397 64.1286L6.8855 61.2678Z" fill="#00292E"/>
<path d="M11.896 46.9273L5.6709 44.9046L6.35434 42.8012C6.51236 42.3149 6.72515 41.9427 6.99271 41.6846C7.25824 41.4259 7.55924 41.2683 7.89572 41.2118C8.23219 41.1554 8.58381 41.1867 8.95059 41.3059C9.31737 41.4251 9.61824 41.6057 9.85322 41.8479C10.0882 42.09 10.2363 42.3924 10.2977 42.7551C10.3571 43.1172 10.3084 43.5393 10.1517 44.0216L9.59863 45.7238L8.91776 45.5026L9.46293 43.8247C9.57091 43.4924 9.60919 43.2091 9.57777 42.9749C9.547 42.7386 9.45727 42.5459 9.30857 42.3968C9.15851 42.2449 8.95886 42.1286 8.70961 42.0476C8.46036 41.9666 8.22738 41.9424 8.01067 41.975C7.79395 42.0077 7.60168 42.1099 7.43386 42.2816C7.26402 42.4527 7.12444 42.7064 7.01515 43.0428L6.58454 44.3681L12.1409 46.1735L11.896 46.9273ZM10.0516 43.0885L13.3458 42.4652L13.0614 43.3406L9.7751 43.9396L10.0516 43.0885Z" fill="#00292E"/>
<path d="M15.3396 38.0285L9.57568 34.9268L11.4476 31.4482L12.0668 31.7814L10.5705 34.562L12.518 35.61L13.9174 33.0095L14.5366 33.3427L13.1372 35.9432L15.096 36.9973L16.6166 34.1716L17.2358 34.5048L15.3396 38.0285Z" fill="#00292E"/>
<path d="M20.1225 30.2647L15.0051 26.1836L17.4521 23.1152L18.0018 23.5536L16.049 26.0023L17.7781 27.3813L19.5476 25.1624L20.0974 25.6008L18.3279 27.8197L20.6167 29.645L20.1225 30.2647Z" fill="#00292E"/>
<path d="M26.1478 23.5497L21.8413 18.6205L24.8162 16.0215L25.2788 16.551L22.9008 18.6286L24.356 20.2941L26.5799 18.3511L27.0425 18.8806L24.8186 20.8236L26.2821 22.4987L28.6986 20.3875L29.1612 20.917L26.1478 23.5497Z" fill="#00292E"/>
<path d="M32.9085 18.228L29.5513 12.6091L31.4499 11.4748C31.8889 11.2125 32.294 11.0722 32.6653 11.0539C33.0355 11.0337 33.3659 11.1131 33.6564 11.292C33.9469 11.4708 34.1911 11.7258 34.3889 12.0568C34.5867 12.3879 34.6944 12.7219 34.7121 13.0588C34.7297 13.3958 34.6423 13.721 34.4499 14.0345C34.2564 14.3462 33.942 14.6321 33.5066 14.8922L31.9702 15.8102L31.603 15.1956L33.1175 14.2908C33.4175 14.1116 33.6327 13.9234 33.7631 13.7263C33.8954 13.5282 33.9546 13.324 33.9408 13.1139C33.9276 12.9008 33.8539 12.6818 33.7195 12.4568C33.585 12.2318 33.4255 12.0603 33.2408 11.9423C33.0561 11.8243 32.8441 11.7748 32.6047 11.7937C32.3643 11.8108 32.0922 11.9101 31.7886 12.0915L30.5924 12.8062L33.5889 17.8215L32.9085 18.228ZM34.0452 14.1237L36.9361 15.8216L36.1459 16.2937L33.277 14.5827L34.0452 14.1237Z" fill="#00292E"/>
<path d="M41.3558 13.7922L39.0559 7.66408L42.7543 6.27604L43.0014 6.93433L40.0451 8.04386L40.8222 10.1145L43.587 9.07683L43.834 9.73512L41.0692 10.7728L41.8508 12.8554L44.855 11.7279L45.1021 12.3862L41.3558 13.7922ZM41.3149 6.18815L40.3781 5.58391L40.0701 6.65532L39.3999 6.90687L39.3819 6.859L39.8842 5.25038L40.5305 5.00781L41.9672 5.88872L41.9851 5.9366L41.3149 6.18815Z" fill="#00292E"/>
<path d="M52.9907 3.90918L54.1594 10.3495L53.4047 10.4864L48.9776 6.06666L48.9147 6.07807L49.8324 11.1347L49.0525 11.2763L47.8838 4.83595L48.6385 4.69899L53.0804 9.12903L53.1433 9.11762L52.2234 4.04842L52.9907 3.90918Z" fill="#00292E"/>
<path d="M63.4222 5.50017H62.6295C62.5827 5.27219 62.5006 5.0719 62.3835 4.89932C62.2684 4.72673 62.1278 4.58185 61.9616 4.46466C61.7975 4.34534 61.6153 4.25585 61.4151 4.19619C61.2148 4.13653 61.006 4.1067 60.7886 4.1067C60.3923 4.1067 60.0333 4.20685 59.7116 4.40713C59.392 4.60741 59.1374 4.90251 58.9477 5.29243C58.7602 5.68234 58.6665 6.16068 58.6665 6.72744C58.6665 7.2942 58.7602 7.77254 58.9477 8.16246C59.1374 8.55237 59.392 8.84747 59.7116 9.04776C60.0333 9.24804 60.3923 9.34818 60.7886 9.34818C61.006 9.34818 61.2148 9.31835 61.4151 9.25869C61.6153 9.19903 61.7975 9.11061 61.9616 8.99342C62.1278 8.8741 62.2684 8.72815 62.3835 8.55557C62.5006 8.38085 62.5827 8.18057 62.6295 7.95472H63.4222C63.3625 8.28923 63.2538 8.58859 63.0962 8.8528C62.9385 9.117 62.7425 9.34179 62.5081 9.52716C62.2737 9.7104 62.0106 9.84996 61.7187 9.94584C61.4289 10.0417 61.1189 10.0897 60.7886 10.0897C60.2304 10.0897 59.734 9.95329 59.2993 9.68057C58.8646 9.40784 58.5227 9.02006 58.2734 8.51722C58.0241 8.01437 57.8994 7.41778 57.8994 6.72744C57.8994 6.0371 58.0241 5.44051 58.2734 4.93767C58.5227 4.43483 58.8646 4.04705 59.2993 3.77432C59.734 3.50159 60.2304 3.36523 60.7886 3.36523C61.1189 3.36523 61.4289 3.41317 61.7187 3.50905C62.0106 3.60493 62.2737 3.74555 62.5081 3.93092C62.7425 4.11416 62.9385 4.33788 63.0962 4.60209C63.2538 4.86416 63.3625 5.16352 63.4222 5.50017Z" fill="#00292E"/>
<path d="M71.5034 4.49407L70.3346 10.9343L69.5547 10.7928L70.7235 4.35254L71.5034 4.49407Z" fill="#00292E"/>
<path d="M76.8177 12.6283L76.0398 12.3363L80.5898 7.05273L81.3558 7.34022L81.3061 14.3128L80.5281 14.0208L80.6329 8.17494L80.585 8.15697L76.8177 12.6283ZM78.0034 10.3423L81.1392 11.5192L80.8922 12.1775L77.7563 11.0006L78.0034 10.3423Z" fill="#00292E"/>
<path d="M92.6941 21.4263L97.0007 16.4971L99.9755 19.0962L99.5129 19.6257L97.1349 17.5481L95.6798 19.2136L97.9037 21.1566L97.4411 21.6861L95.2172 19.7431L93.7537 21.4183L96.1701 23.5295L95.7075 24.059L92.6941 21.4263Z" fill="#00292E"/>
<path d="M103.467 22.6709L104.057 23.4105L101.196 28.5372L101.244 28.5972L106.879 26.9487L107.469 27.6884L102.351 31.7694L101.889 31.1897L105.777 28.089L105.737 28.0391L100.574 29.5405L100.127 28.9808L102.74 24.281L102.7 24.231L98.8122 27.3316L98.3499 26.7519L103.467 22.6709Z" fill="#00292E"/>
<path d="M108.075 42.9143L114.3 40.8916L115.007 43.068C115.148 43.5016 115.189 43.8837 115.131 44.2141C115.074 44.5438 114.943 44.8184 114.736 45.0378C114.532 45.2566 114.278 45.4154 113.974 45.5141C113.706 45.601 113.47 45.6252 113.265 45.5866C113.06 45.55 112.882 45.4711 112.731 45.3501C112.58 45.231 112.452 45.0902 112.345 44.9277L112.284 44.9474C112.334 45.1419 112.329 45.3551 112.27 45.5871C112.211 45.8191 112.089 46.0368 111.904 46.2403C111.72 46.4437 111.463 46.5987 111.135 46.7054C110.823 46.8068 110.519 46.8271 110.224 46.7662C109.928 46.7053 109.658 46.5456 109.413 46.287C109.167 46.0285 108.965 45.654 108.806 45.1636L108.075 42.9143ZM108.988 43.4508L109.474 44.9463C109.634 45.4387 109.843 45.7573 110.101 45.9021C110.361 46.0483 110.628 46.077 110.902 45.9881C111.112 45.9196 111.29 45.8027 111.433 45.6373C111.578 45.4713 111.673 45.2716 111.715 45.0381C111.76 44.804 111.739 44.5511 111.65 44.2796L111.153 42.7476L108.988 43.4508ZM111.809 42.5343L112.264 43.9325C112.337 44.1595 112.448 44.3497 112.597 44.5031C112.746 44.6585 112.919 44.7636 113.116 44.8183C113.314 44.8751 113.522 44.8679 113.741 44.7968C114.014 44.7079 114.215 44.5373 114.344 44.2849C114.475 44.0319 114.473 43.6987 114.338 43.2853L113.876 41.8627L111.809 42.5343Z" fill="#00292E"/>
<path d="M117.327 53.5755L110.841 54.4541L110.735 53.6686L117.221 52.79L117.327 53.5755Z" fill="#00292E"/>
<path d="M114.296 65.8719C113.607 65.8409 113.016 65.6896 112.525 65.418C112.034 65.1464 111.662 64.7874 111.409 64.3409C111.156 63.8945 111.042 63.3924 111.067 62.8347C111.092 62.2771 111.251 61.7872 111.543 61.3652C111.835 60.9433 112.237 60.619 112.751 60.3925C113.264 60.1661 113.866 60.0683 114.556 60.0993C115.245 60.1303 115.836 60.2815 116.327 60.5531C116.818 60.8247 117.19 61.1838 117.443 61.6302C117.696 62.0767 117.81 62.5787 117.785 63.1364C117.76 63.6941 117.601 64.1839 117.309 64.6059C117.017 65.0279 116.615 65.3521 116.101 65.5786C115.588 65.8051 114.986 65.9028 114.296 65.8719ZM114.331 65.1056C114.897 65.131 115.379 65.0578 115.777 64.8858C116.175 64.716 116.481 64.4749 116.696 64.1625C116.91 63.8522 117.026 63.4991 117.044 63.1032C117.062 62.7072 116.978 62.3441 116.792 62.0137C116.607 61.6854 116.323 61.4178 115.942 61.2109C115.561 61.0061 115.087 60.891 114.521 60.8656C113.955 60.8401 113.473 60.9123 113.075 61.0821C112.677 61.2541 112.371 61.4952 112.156 61.8055C111.942 62.1179 111.826 62.4721 111.808 62.868C111.79 63.2639 111.874 63.626 112.06 63.9543C112.246 64.2847 112.529 64.5523 112.91 64.7571C113.291 64.964 113.765 65.0802 114.331 65.1056Z" fill="#00292E"/>
<path d="M116.973 70.4262L116.763 71.3485L110.971 72.3081L110.954 72.3829L115.756 75.7606L115.545 76.6829L109.164 75.2264L109.329 74.5035L114.177 75.6101L114.191 75.5478L109.798 72.447L109.957 71.749L115.261 70.8615L115.275 70.7991L110.427 69.6925L110.592 68.9697L116.973 70.4262Z" fill="#00292E"/>
<path d="M107.805 78.8862L108.131 78.1221L113.205 82.9046L112.884 83.657L105.921 83.2945L106.247 82.5304L112.082 82.8973L112.102 82.8503L107.805 78.8862ZM110.035 80.1732L108.719 83.2531L108.072 82.9768L109.389 79.8969L110.035 80.1732Z" fill="#00292E"/>
<path d="M106.111 92.3893C106.402 92.5357 106.698 92.5444 106.998 92.4154C107.297 92.2864 107.556 92.0565 107.774 91.7258C107.934 91.4839 108.035 91.2465 108.076 91.0135C108.116 90.7822 108.102 90.5708 108.032 90.379C107.96 90.189 107.838 90.0366 107.663 89.9215C107.518 89.8253 107.369 89.7772 107.219 89.7773C107.069 89.7803 106.922 89.8141 106.78 89.8786C106.64 89.9442 106.508 90.0228 106.383 90.1144C106.261 90.2071 106.153 90.2954 106.059 90.3791L105.544 90.8354C105.412 90.953 105.256 91.0772 105.076 91.208C104.894 91.3406 104.693 91.4494 104.473 91.5343C104.255 91.6222 104.022 91.6605 103.777 91.6492C103.532 91.6379 103.281 91.5477 103.025 91.3787C102.73 91.1839 102.514 90.9304 102.378 90.6184C102.241 90.3082 102.199 89.9592 102.254 89.5713C102.307 89.1851 102.472 88.7822 102.749 88.3626C103.007 87.9714 103.294 87.6743 103.609 87.4713C103.923 87.2702 104.247 87.1623 104.581 87.1478C104.914 87.135 105.236 87.2166 105.549 87.3924L105.099 88.0753C104.88 87.9569 104.664 87.9136 104.449 87.9453C104.235 87.9799 104.033 88.0689 103.844 88.2122C103.656 88.3584 103.49 88.54 103.346 88.757C103.18 89.0095 103.071 89.2632 103.02 89.5181C102.971 89.7742 102.982 90.0097 103.052 90.2245C103.124 90.4404 103.259 90.6141 103.458 90.7456C103.64 90.8653 103.821 90.9121 104.002 90.8858C104.182 90.8596 104.363 90.7873 104.543 90.6688C104.723 90.5504 104.904 90.4128 105.084 90.256L105.719 89.7106C106.124 89.3648 106.522 89.1425 106.914 89.0438C107.306 88.9451 107.686 89.0173 108.054 89.2602C108.36 89.4621 108.572 89.7209 108.69 90.0365C108.809 90.3551 108.839 90.6965 108.78 91.0608C108.722 91.428 108.577 91.7859 108.347 92.1345C108.115 92.4866 107.845 92.7578 107.538 92.9484C107.233 93.14 106.919 93.2443 106.596 93.2611C106.273 93.2797 105.97 93.2025 105.688 93.0295L106.111 92.3893Z" fill="#00292E"/>
<path d="M99.7004 99.9977C99.961 100.194 100.25 100.255 100.568 100.181C100.886 100.108 101.182 99.9283 101.456 99.6418C101.656 99.4324 101.797 99.2167 101.88 98.9948C101.961 98.7745 101.984 98.5638 101.949 98.3626C101.913 98.163 101.819 97.991 101.668 97.8467C101.542 97.726 101.405 97.6522 101.257 97.6254C101.108 97.6016 100.959 97.6087 100.807 97.6468C100.657 97.6863 100.513 97.74 100.375 97.8079C100.238 97.8773 100.115 97.9449 100.008 98.0106L99.4197 98.3674C99.2695 98.4597 99.0938 98.554 98.8925 98.6505C98.6898 98.7485 98.4729 98.8196 98.2418 98.864C98.0108 98.9114 97.7756 98.9076 97.5363 98.8527C97.2969 98.7978 97.0664 98.6643 96.8446 98.4523C96.589 98.2079 96.422 97.92 96.3437 97.5887C96.264 97.259 96.2855 96.9081 96.4083 96.5361C96.5296 96.1657 96.764 95.7988 97.1114 95.4353C97.4354 95.0965 97.7706 94.8554 98.117 94.712C98.4619 94.5701 98.7999 94.5219 99.1309 94.5672C99.4605 94.614 99.7635 94.7519 100.04 94.9808L99.4745 95.5722C99.2811 95.4168 99.0758 95.3355 98.8587 95.3283C98.6416 95.3241 98.4272 95.3757 98.2156 95.4829C98.0041 95.5931 97.8085 95.7422 97.6289 95.9301C97.4198 96.1487 97.2675 96.379 97.172 96.6207C97.078 96.864 97.0463 97.0975 97.0769 97.3214C97.1091 97.5467 97.2114 97.7418 97.3839 97.9067C97.541 98.0569 97.7108 98.1352 97.8933 98.1417C98.0758 98.1481 98.2663 98.1092 98.4648 98.0249C98.6634 97.9405 98.8653 97.8373 99.0705 97.7151L99.7934 97.292C100.253 97.024 100.684 96.8764 101.088 96.8493C101.491 96.8222 101.852 96.961 102.171 97.2658C102.436 97.5191 102.598 97.8115 102.658 98.1432C102.719 98.4779 102.687 98.8192 102.564 99.1671C102.441 99.518 102.235 99.8443 101.946 100.146C101.655 100.451 101.341 100.67 101.005 100.802C100.67 100.936 100.343 100.983 100.022 100.942C99.7004 100.902 99.4164 100.772 99.1703 100.552L99.7004 99.9977Z" fill="#00292E"/>
<path d="M91.7354 100.487L92.4077 99.998L94.3106 106.706L93.6487 107.187L87.8569 103.305L88.5292 102.816L93.3503 106.124L93.3917 106.094L91.7354 100.487ZM92.99 102.736L90.2803 104.704L89.867 104.135L92.5768 102.167L92.99 102.736Z" fill="#00292E"/>
<path d="M73.2764 112.82L73.0894 112.143L75.8498 111.381L76.0368 112.059L73.2764 112.82Z" fill="#00292E"/>
</svg>
