<svg width="10" height="29" viewBox="0 0 10 29" fill="none" xmlns="http://www.w3.org/2000/svg">
<path d="M6.84967 5.0577L4.81752 17.2538L2.78538 5.0577C2.73664 4.7628 2.75267 4.46082 2.83235 4.17274C2.91203 3.88465 3.05346 3.61736 3.24682 3.38942C3.44018 3.16148 3.68083 2.97835 3.95206 2.85276C4.2233 2.72716 4.51862 2.66211 4.81752 2.66211C5.11643 2.66211 5.41175 2.72716 5.68299 2.85276C5.95422 2.97835 6.19487 3.16148 6.38823 3.38942C6.58159 3.61736 6.72302 3.88465 6.8027 4.17274C6.88238 4.46082 6.89841 4.7628 6.84967 5.0577Z" stroke="#D80027" stroke-width="5" stroke-linecap="round" stroke-linejoin="round"/>
<path d="M4.81713 26.8989C5.71284 26.8989 6.43895 26.1728 6.43895 25.2771C6.43895 24.3814 5.71284 23.6553 4.81713 23.6553C3.92143 23.6553 3.19531 24.3814 3.19531 25.2771C3.19531 26.1728 3.92143 26.8989 4.81713 26.8989Z" fill="#D80027" stroke="#D80027" stroke-width="3"/>
</svg>
