<svg width="44" height="41" viewBox="0 0 44 41" fill="none" xmlns="http://www.w3.org/2000/svg">
<mask id="mask0_584_2142" style="mask-type:luminance" maskUnits="userSpaceOnUse" x="10" y="4" width="35" height="37">
<path d="M43.8475 15.3711C45.2919 27.7905 36.4053 39.0323 23.9702 40.4768C20.1235 40.9164 16.371 40.3669 12.9953 39.0166C34.6154 36.4574 39.5611 18.4799 39.7024 17.9147C30.7844 33.0189 19.3384 34.2592 10.7344 32.2338C10.9228 29.7531 11.4095 27.3352 12.1946 25.0585C13.5291 20.992 15.7429 17.2709 18.6319 14.1622C23.3108 9.10648 29.7481 5.6366 37.1432 4.77305C37.9753 4.67885 38.7918 4.61604 39.6239 4.60034C41.8692 7.66201 43.3764 11.336 43.8475 15.3711Z" fill="white"/>
</mask>
<g mask="url(#mask0_584_2142)">
<path fill-rule="evenodd" clip-rule="evenodd" d="M43.8475 15.3711C45.2919 27.7905 36.4053 39.0323 23.9702 40.4768C20.1235 40.9164 16.371 40.3669 12.9953 39.0166C34.6154 36.4574 39.5611 18.4799 39.7024 17.9147C30.7844 33.0189 19.3384 34.2592 10.7344 32.2338C10.9228 29.7531 11.4095 27.3352 12.1946 25.0585C13.5291 20.992 15.7429 17.2709 18.6319 14.1622C23.3108 9.10648 29.7481 5.6366 37.1432 4.77305C37.9753 4.67885 38.7918 4.61604 39.6239 4.60034C41.8692 7.66201 43.3764 11.336 43.8475 15.3711Z" fill="#17D460"/>
</g>
<mask id="mask1_584_2142" style="mask-type:luminance" maskUnits="userSpaceOnUse" x="0" y="0" width="18" height="28">
<path d="M4.34322 7.4893C4.34322 7.4893 -0.38273 17.5849 8.37834 27.0369L8.25274 27.5707C7.6718 27.2881 7.12227 26.9427 6.57274 26.5658C-0.398431 21.6829 -2.09412 12.074 2.78884 5.10278C4.35893 2.84185 6.46284 1.11476 8.80227 0C9.28899 0.282615 9.76002 0.580931 10.231 0.910649C13.7951 3.42278 16.323 6.86127 17.7046 10.6766C14.0463 14.1779 11.2045 18.4956 9.4617 23.3472C5.86621 20.5681 3.05576 15.7636 4.34322 7.4893Z" fill="white"/>
</mask>
<g mask="url(#mask1_584_2142)">
<path fill-rule="evenodd" clip-rule="evenodd" d="M4.31092 7.55212C4.31092 7.55212 -0.383638 17.6792 8.40884 27.0997L8.28323 27.6178C7.7023 27.3352 7.15277 27.0055 6.60324 26.6287C-0.383638 21.7771 -2.12643 12.1682 2.74083 5.1656C4.31092 2.90467 6.39913 1.17758 8.72285 0.0471191C9.20958 0.329734 9.69631 0.62805 10.1516 0.957768C13.7471 3.4542 16.2907 6.87699 17.6723 10.6923C14.0297 14.2093 11.2036 18.5427 9.4922 23.3943C5.881 20.6309 3.03915 15.8422 4.31092 7.55212Z" fill="#158F44"/>
</g>
</svg>
