<svg width="50" height="50" viewBox="0 0 50 50" fill="none" xmlns="http://www.w3.org/2000/svg">
<g clip-path="url(#clip0_2604_1609)">
<mask id="mask0_2604_1609" style="mask-type:luminance" maskUnits="userSpaceOnUse" x="0" y="0" width="50" height="50">
<path d="M0 0H50V50H0V0Z" fill="white"/>
</mask>
<g mask="url(#mask0_2604_1609)">
<path fill-rule="evenodd" clip-rule="evenodd" d="M37.4844 2.08436C37.4597 1.77118 37.3723 1.46616 37.2274 1.18743C37.0825 0.908692 36.883 0.661936 36.6408 0.461824C36.3986 0.261711 36.1187 0.112327 35.8177 0.0225487C35.5166 -0.0672293 35.2006 -0.0955682 34.8884 -0.0607838C34.5761 -0.0259994 34.2741 0.0711984 34.0002 0.225033C33.7263 0.378867 33.4861 0.586198 33.2939 0.834702C33.1017 1.08321 32.9614 1.36781 32.8814 1.67161C32.8014 1.9754 32.7833 2.29218 32.8281 2.60311L34.9687 21.875H32.2594C27.1344 21.875 23.2094 26.4031 22.2687 31.4375C21.548 35.1841 20.2847 38.8055 18.5188 42.1875C16.9813 45.15 15.625 46.875 15.625 46.875H42.1875C42.1875 46.875 48.6875 41.4562 49.9625 29.7187C50.4375 25.2937 46.5937 21.875 42.15 21.875H39.6875L37.4844 2.08436ZM11.7188 7.81249C11.0971 7.81249 10.501 8.05942 10.0615 8.49896C9.62193 8.93849 9.375 9.53464 9.375 10.1562C9.375 10.7778 9.62193 11.374 10.0615 11.8135C10.501 12.2531 11.0971 12.5 11.7188 12.5H25.7812C26.4029 12.5 26.999 12.2531 27.4385 11.8135C27.8781 11.374 28.125 10.7778 28.125 10.1562C28.125 9.53464 27.8781 8.93849 27.4385 8.49896C26.999 8.05942 26.4029 7.81249 25.7812 7.81249H11.7188ZM2.34375 18.75C1.72215 18.75 1.12601 18.9969 0.686468 19.4365C0.24693 19.876 0 20.4721 0 21.0937C0 21.7153 0.24693 22.3115 0.686468 22.751C1.12601 23.1906 1.72215 23.4375 2.34375 23.4375H19.5312C20.1529 23.4375 20.749 23.1906 21.1885 22.751C21.6281 22.3115 21.875 21.7153 21.875 21.0937C21.875 20.4721 21.6281 19.876 21.1885 19.4365C20.749 18.9969 20.1529 18.75 19.5312 18.75H2.34375ZM3.125 32.0312C3.125 31.4096 3.37193 30.8135 3.81147 30.374C4.25101 29.9344 4.84715 29.6875 5.46875 29.6875H13.2812C13.9029 29.6875 14.499 29.9344 14.9385 30.374C15.3781 30.8135 15.625 31.4096 15.625 32.0312C15.625 32.6528 15.3781 33.249 14.9385 33.6885C14.499 34.1281 13.9029 34.375 13.2812 34.375H5.46875C4.84715 34.375 4.25101 34.1281 3.81147 33.6885C3.37193 33.249 3.125 32.6528 3.125 32.0312ZM23.7281 42.1875C24.9562 39.4812 26.1656 36.125 26.8781 32.2969C27.5594 28.6469 30.1437 26.5625 32.2562 26.5625H42.1531C43.1906 26.5625 44.0844 26.9687 44.6438 27.5094C44.8825 27.7192 45.0669 27.9837 45.1812 28.2803C45.2954 28.5769 45.3362 28.8967 45.3 29.2125C44.7531 34.2812 43.0875 37.8969 41.6344 40.1937C41.1983 40.8891 40.7171 41.5551 40.1938 42.1875H37.0719C38.7562 39.9812 39.8438 36.7875 39.8438 33.5937H37.5C36.4031 37.4344 34.15 40.1187 30.7438 42.1875H23.7281Z" fill="#17AA61"/>
</g>
</g>
<defs>
<clipPath id="clip0_2604_1609">
<rect width="50" height="50" fill="white"/>
</clipPath>
</defs>
</svg>
