<svg width="31" height="32" viewBox="0 0 31 32" fill="none" xmlns="http://www.w3.org/2000/svg">
<g clip-path="url(#clip0_592_4395)">
<path d="M25.1261 10.6673H21.7759V6.22287C21.7759 5.98713 21.6876 5.76103 21.5306 5.59433C21.3735 5.42764 21.1605 5.33398 20.9383 5.33398H2.51235C2.29022 5.33398 2.07719 5.42764 1.92012 5.59433C1.76305 5.76103 1.6748 5.98713 1.6748 6.22287V22.2229C1.6748 22.4586 1.76305 22.6847 1.92012 22.8514C2.07719 23.0181 2.29022 23.1118 2.51235 23.1118H3.3499V7.11176H20.1008V17.5118C20.5279 17.3962 20.9666 17.3365 21.4074 17.334H21.7759V12.4451H25.1261C25.5703 12.4451 25.9964 12.6324 26.3105 12.9658C26.6247 13.2992 26.8012 13.7514 26.8012 14.2229V15.1118H23.451V16.8895H26.8012V21.334H24.7911C24.4972 20.6096 24.0098 19.9925 23.3891 19.5589C22.7684 19.1252 22.0416 18.8942 21.2985 18.8942C20.5554 18.8942 19.8286 19.1252 19.2079 19.5589C18.5871 19.9925 18.0998 20.6096 17.8059 21.334H12.0855C11.7972 20.6043 11.3115 19.9817 10.6899 19.545C10.0682 19.1083 9.33844 18.8771 8.59293 18.8807C7.8846 18.8972 7.19594 19.1312 6.61017 19.5542C6.02441 19.9772 5.56659 20.5711 5.29203 21.2643C5.01748 21.9575 4.93793 22.7202 5.06301 23.4604C5.18809 24.2005 5.51244 24.8863 5.99687 25.4351C6.4813 25.9838 7.10509 26.3719 7.79286 26.5524C8.48063 26.733 9.20296 26.6984 9.87257 26.4526C10.5422 26.2069 11.1304 25.7607 11.5662 25.1678C12.002 24.575 12.2667 23.8608 12.3284 23.1118H17.5882C17.6946 24.084 18.1339 24.9808 18.8226 25.6317C19.5113 26.2826 20.4014 26.6423 21.3236 26.6423C22.2458 26.6423 23.1359 26.2826 23.8246 25.6317C24.5133 24.9808 24.9526 24.084 25.0591 23.1118H27.6387C27.8608 23.1118 28.0739 23.0181 28.2309 22.8514C28.388 22.6847 28.4762 22.4586 28.4762 22.2229V14.2229C28.4762 13.2799 28.1233 12.3755 27.495 11.7087C26.8667 11.0419 26.0146 10.6673 25.1261 10.6673ZM8.59293 24.8895C8.32085 24.9083 8.04804 24.8676 7.79137 24.77C7.5347 24.6724 7.29963 24.5199 7.10069 24.3221C6.90175 24.1242 6.74318 23.8851 6.63477 23.6196C6.52636 23.3541 6.47043 23.0678 6.47043 22.7784C6.47043 22.4891 6.52636 22.2028 6.63477 21.9373C6.74318 21.6718 6.90175 21.4327 7.10069 21.2348C7.29963 21.0369 7.5347 20.8845 7.79137 20.7869C8.04804 20.6893 8.32085 20.6486 8.59293 20.6673C8.86501 20.6486 9.13781 20.6893 9.39448 20.7869C9.65115 20.8845 9.88622 21.0369 10.0852 21.2348C10.2841 21.4327 10.4427 21.6718 10.5511 21.9373C10.6595 22.2028 10.7154 22.4891 10.7154 22.7784C10.7154 23.0678 10.6595 23.3541 10.5511 23.6196C10.4427 23.8851 10.2841 24.1242 10.0852 24.3221C9.88622 24.5199 9.65115 24.6724 9.39448 24.77C9.13781 24.8676 8.86501 24.9083 8.59293 24.8895ZM21.2985 24.8895C20.9088 24.8687 20.5334 24.7268 20.2189 24.4817C19.9044 24.2365 19.6647 23.8987 19.5293 23.5103C19.394 23.1219 19.3691 22.6998 19.4577 22.2965C19.5462 21.8932 19.7444 21.5263 20.0276 21.2414C20.3108 20.9564 20.6665 20.766 21.0508 20.6937C21.435 20.6213 21.8308 20.6702 22.189 20.8344C22.5473 20.9985 22.8523 21.2706 23.0662 21.617C23.2801 21.9634 23.3935 22.3687 23.3923 22.7829C23.377 23.3566 23.148 23.9005 22.7555 24.2953C22.3631 24.6902 21.8391 24.9039 21.2985 24.8895Z" fill="#17D460"/>
</g>
<defs>
<clipPath id="clip0_592_4395">
<rect width="30.1516" height="32" fill="white"/>
</clipPath>
</defs>
</svg>
