<svg width="57" height="52" viewBox="0 0 57 52" fill="none" xmlns="http://www.w3.org/2000/svg">
<mask id="mask0_490_2823" style="mask-type:luminance" maskUnits="userSpaceOnUse" x="14" y="6" width="43" height="46">
<path d="M55.9887 20.0828C57.8099 35.741 46.6057 49.9145 30.9278 51.7356C26.0779 52.2899 21.3468 51.5971 17.0908 49.8947C44.349 46.668 50.5846 24.0023 50.7627 23.2897C39.519 42.3328 25.0881 43.8967 14.2402 41.3431C14.4778 38.2154 15.0914 35.1669 16.0812 32.2966C17.7638 27.1696 20.555 22.4781 24.1973 18.5586C30.0963 12.1845 38.2125 7.80967 47.5361 6.72092C48.5852 6.60215 49.6146 6.52297 50.6638 6.50317C53.4945 10.3633 55.3949 14.9954 55.9887 20.0828Z" fill="white"/>
</mask>
<g mask="url(#mask0_490_2823)">
<path fill-rule="evenodd" clip-rule="evenodd" d="M55.989 20.0828C57.8101 35.741 46.606 49.9145 30.928 51.7356C26.0781 52.2899 21.347 51.5971 17.091 49.8947C44.3493 46.668 50.5848 24.0023 50.763 23.2897C39.5192 42.3328 25.0884 43.8967 14.2405 41.3431C14.478 38.2154 15.0917 35.1669 16.0815 32.2966C17.7641 27.1696 20.5552 22.4781 24.1976 18.5586C30.0966 12.1845 38.2127 7.80967 47.5363 6.72092C48.5855 6.60215 49.6149 6.52297 50.664 6.50317C53.4948 10.3633 55.3951 14.9954 55.989 20.0828Z" fill="#17D460"/>
</g>
<mask id="mask1_490_2823" style="mask-type:luminance" maskUnits="userSpaceOnUse" x="0" y="0" width="24" height="36">
<path d="M6.18095 10.1463C6.18095 10.1463 0.222538 22.8747 11.2684 34.7915L11.11 35.4646C10.3776 35.1083 9.68474 34.6728 8.9919 34.1977C0.202742 28.0413 -1.93516 15.9265 4.22121 7.13736C6.20075 4.28682 8.85333 2.10933 11.8028 0.703857C12.4165 1.06017 13.0104 1.43629 13.6042 1.85199C18.0978 5.01925 21.2848 9.35445 23.0268 14.1647C18.4145 18.5791 14.8315 24.0228 12.6343 30.1396C8.1011 26.6358 4.55773 20.5784 6.18095 10.1463Z" fill="white"/>
</mask>
<g mask="url(#mask1_490_2823)">
<path fill-rule="evenodd" clip-rule="evenodd" d="M6.14336 10.2251C6.14336 10.2251 0.224534 22.9932 11.31 34.8704L11.1516 35.5237C10.4192 35.1673 9.72632 34.7516 9.03348 34.2765C0.224534 28.1598 -1.97275 16.045 4.16382 7.21624C6.14336 4.3657 8.77614 2.18821 11.7059 0.762939C12.3195 1.11926 12.9332 1.49537 13.5072 1.91107C18.0404 5.05854 21.2472 9.37394 22.9892 14.1842C18.3967 18.6184 14.8335 24.0819 12.6758 30.1987C8.1229 26.7147 4.53993 20.6771 6.14336 10.2251Z" fill="#158F44"/>
</g>
</svg>
