<svg width="60" height="77" viewBox="0 0 60 77" fill="none" xmlns="http://www.w3.org/2000/svg">
<g clip-path="url(#clip0_1173_2189)">
<path d="M5.32799 35.2517H9.59441C12.4251 43.5636 20.3083 49.559 29.5657 49.559C36.2033 49.559 42.1335 46.4759 46.0022 41.6677H51.4868C52.5046 41.6677 53.3295 40.8428 53.3295 39.825V35.2517H54.1601C56.1589 35.2517 57.7848 33.6256 57.7848 31.6268V22.3593C57.7848 20.5932 56.5148 19.1187 54.8403 18.7993C53.631 13.3218 50.6531 8.66683 46.1831 5.29034C41.6009 1.82941 35.8546 0 29.5656 0C16.8004 0 6.73165 7.56056 4.27155 18.8918C2.78649 19.3453 1.70312 20.7279 1.70312 22.3593V31.6268C1.70312 33.6256 3.32921 35.2517 5.32799 35.2517ZM5.38855 31.5663V22.4199H9.36063C8.7857 24.3368 8.47534 26.367 8.47534 28.4684C8.47534 29.5207 8.55384 30.5549 8.70334 31.5663H5.38855ZM29.5656 45.8736C19.9684 45.8736 12.1606 38.0656 12.1606 28.4684C12.1606 18.8713 19.9684 11.0636 29.5656 11.0636C39.1629 11.0636 46.9707 18.8714 46.9707 28.4684C46.9707 31.9773 45.9259 35.2459 44.1331 37.9823H28.4963C27.4786 37.9823 26.6536 38.8073 26.6536 39.825C26.6536 40.8428 27.4786 41.6677 28.4963 41.6677H40.8982C37.8509 44.2877 33.8902 45.8736 29.5656 45.8736ZM49.6439 37.9823H48.3849C48.8299 37.1051 49.2162 36.1936 49.5369 35.2517H49.6437L49.6439 37.9823ZM54.0993 31.5663H50.4282C50.5778 30.555 50.6563 29.5207 50.6563 28.4684C50.6563 26.367 50.3457 24.3368 49.771 22.4199H54.0994L54.0993 31.5663ZM29.5656 3.68542C40.1876 3.68542 48.5945 9.66269 51.0298 18.7344H48.271C44.7477 11.9917 37.6858 7.37821 29.5656 7.37821C21.4454 7.37821 14.3835 11.9917 10.8603 18.7344H8.10102C10.5339 9.6683 18.958 3.68542 29.5656 3.68542Z" fill="#003333"/>
<path d="M48.4902 50.3701H10.6086C4.759 50.3701 0 55.129 0 60.9785V75.1568C0 76.1746 0.825054 76.9995 1.84271 76.9995C2.86037 76.9995 3.68542 76.1746 3.68542 75.1568V60.9785C3.68542 57.1612 6.79111 54.0555 10.6086 54.0555H48.4902C52.3077 54.0555 55.4135 57.1612 55.4135 60.9787V75.157C55.4135 76.1748 56.2384 76.9997 57.2562 76.9997C58.274 76.9997 59.0989 76.1748 59.0989 75.157V60.9787C59.0989 55.1291 54.3399 50.3701 48.4902 50.3701Z" fill="#003333"/>
</g>
<defs>
<clipPath id="clip0_1173_2189">
<rect width="60" height="77" fill="white"/>
</clipPath>
</defs>
</svg>
