<svg width="73" height="72" viewBox="0 0 73 72" fill="none" xmlns="http://www.w3.org/2000/svg">
<g filter="url(#filter0_d_735_1350)">
<path fill-rule="evenodd" clip-rule="evenodd" d="M68.1183 24.1698C70.2306 43.6983 57.2351 61.3751 39.0507 63.6465C33.4255 64.3377 27.938 63.4736 23.0016 61.3505C54.6177 57.3263 61.8501 29.0581 62.0568 28.1693C49.0154 51.9195 32.2775 53.8699 19.6953 50.6851C19.9708 46.7843 20.6826 42.9823 21.8306 39.4025C23.7822 33.0083 27.0196 27.1571 31.2443 22.2688C38.0864 14.3192 47.5 8.86307 58.3143 7.50521C59.5312 7.35708 60.7251 7.25833 61.942 7.23364C65.2253 12.0479 67.4295 17.8249 68.1183 24.1698Z" fill="#044A27"/>
<mask id="mask0_735_1350" style="mask-type:luminance" maskUnits="userSpaceOnUse" x="19" y="7" width="50" height="57">
<path d="M68.1183 24.1698C70.2306 43.6983 57.2351 61.3751 39.0507 63.6465C33.4255 64.3377 27.938 63.4736 23.0016 61.3505C54.6177 57.3263 61.8501 29.0581 62.0568 28.1693C49.0154 51.9195 32.2775 53.8699 19.6953 50.6851C19.9708 46.7843 20.6826 42.9823 21.8306 39.4025C23.7822 33.0083 27.0196 27.1571 31.2443 22.2688C38.0864 14.3192 47.5 8.86307 58.3143 7.50521C59.5312 7.35708 60.7251 7.25833 61.942 7.23364C65.2253 12.0479 67.4295 17.8249 68.1183 24.1698Z" fill="white"/>
</mask>
<g mask="url(#mask0_735_1350)">
<path fill-rule="evenodd" clip-rule="evenodd" d="M68.1183 24.1698C70.2306 43.6983 57.2351 61.3751 39.0507 63.6465C33.4255 64.3377 27.938 63.4736 23.0016 61.3505C54.6177 57.3263 61.8501 29.0581 62.0568 28.1693C49.0154 51.9195 32.2775 53.8699 19.6953 50.6851C19.9708 46.7843 20.6826 42.9823 21.8306 39.4025C23.7822 33.0083 27.0196 27.1571 31.2443 22.2688C38.0864 14.3192 47.5 8.86307 58.3143 7.50521C59.5312 7.35708 60.7251 7.25833 61.942 7.23364C65.2253 12.0479 67.4295 17.8249 68.1183 24.1698Z" fill="#17D460"/>
</g>
<path fill-rule="evenodd" clip-rule="evenodd" d="M10.3513 11.7763C10.3513 11.7763 3.44031 27.6509 16.2521 42.5133L16.0684 43.3527C15.2189 42.9083 14.4153 42.3652 13.6117 41.7727C3.41735 34.0946 0.937659 18.9853 8.07826 8.02371C10.3743 4.46859 13.4509 1.75287 16.872 0C17.5838 0.44439 18.2726 0.913468 18.9614 1.43192C24.1733 5.38206 27.8699 10.7888 29.8904 16.7881C24.5407 22.2936 20.3849 29.0829 17.8363 36.7115C12.5785 32.3417 8.46859 24.7871 10.3513 11.7763Z" fill="#17BD57"/>
<mask id="mask1_735_1350" style="mask-type:luminance" maskUnits="userSpaceOnUse" x="4" y="0" width="26" height="44">
<path d="M10.3513 11.7763C10.3513 11.7763 3.44031 27.6509 16.2521 42.5133L16.0684 43.3527C15.2189 42.9083 14.4153 42.3652 13.6117 41.7727C3.41735 34.0946 0.937659 18.9853 8.07826 8.02371C10.3743 4.46859 13.4509 1.75287 16.872 0C17.5838 0.44439 18.2726 0.913468 18.9614 1.43192C24.1733 5.38206 27.8699 10.7888 29.8904 16.7881C24.5407 22.2936 20.3849 29.0829 17.8363 36.7115C12.5785 32.3417 8.46859 24.7871 10.3513 11.7763Z" fill="white"/>
</mask>
<g mask="url(#mask1_735_1350)">
<path fill-rule="evenodd" clip-rule="evenodd" d="M10.3053 11.875C10.3053 11.875 3.4402 27.799 16.2979 42.612L16.1142 43.4267C15.2647 42.9823 14.4611 42.4638 13.6575 41.8713C3.4402 34.2426 0.891629 19.1334 8.00927 8.12237C10.3053 4.56725 13.359 1.85153 16.7571 0.0739746C17.4689 0.518365 18.1806 0.987443 18.8465 1.5059C24.1043 5.43134 27.8239 10.8134 29.8444 16.8127C24.5176 22.3428 20.3848 29.1568 17.8821 36.7855C12.6013 32.4404 8.44552 24.9104 10.3053 11.875Z" fill="#158F44"/>
</g>
</g>
<defs>
<filter id="filter0_d_735_1350" x="0" y="0" width="72.3433" height="71.8804" filterUnits="userSpaceOnUse" color-interpolation-filters="sRGB">
<feFlood flood-opacity="0" result="BackgroundImageFix"/>
<feColorMatrix in="SourceAlpha" type="matrix" values="0 0 0 0 0 0 0 0 0 0 0 0 0 0 0 0 0 0 127 0" result="hardAlpha"/>
<feOffset dy="4"/>
<feGaussianBlur stdDeviation="2"/>
<feComposite in2="hardAlpha" operator="out"/>
<feColorMatrix type="matrix" values="0 0 0 0 0 0 0 0 0 0 0 0 0 0 0 0 0 0 0.25 0"/>
<feBlend mode="normal" in2="BackgroundImageFix" result="effect1_dropShadow_735_1350"/>
<feBlend mode="normal" in="SourceGraphic" in2="effect1_dropShadow_735_1350" result="shape"/>
</filter>
</defs>
</svg>
