<svg width="22" height="22" viewBox="0 0 22 22" fill="none" xmlns="http://www.w3.org/2000/svg">
<mask id="mask0_914_5497" style="mask-type:luminance" maskUnits="userSpaceOnUse" x="5" y="2" width="17" height="20">
<path d="M21.1963 8.21701C21.8842 14.6007 17.6521 20.3792 11.7302 21.1217C9.89833 21.3477 8.1113 21.0652 6.50371 20.3711C16.7997 19.0556 19.155 9.81496 19.2223 9.52442C14.9753 17.2882 9.52448 17.9258 5.427 16.8847C5.51673 15.6096 5.74852 14.3667 6.12238 13.1965C6.75793 11.1062 7.81221 9.19353 9.18801 7.59558C11.4162 4.99689 14.4818 3.21332 18.0036 2.76944C18.3998 2.72102 18.7887 2.68873 19.1849 2.68066C20.2542 4.25441 20.972 6.1429 21.1963 8.21701Z" fill="white"/>
</mask>
<g mask="url(#mask0_914_5497)">
<path fill-rule="evenodd" clip-rule="evenodd" d="M21.1963 8.21701C21.8842 14.6007 17.6521 20.3792 11.7302 21.1217C9.89833 21.3477 8.1113 21.0652 6.50371 20.3711C16.7997 19.0556 19.155 9.81496 19.2223 9.52442C14.9753 17.2882 9.52448 17.9258 5.427 16.8847C5.51673 15.6096 5.74852 14.3667 6.12238 13.1965C6.75793 11.1062 7.81221 9.19353 9.18801 7.59558C11.4162 4.99689 14.4818 3.21332 18.0036 2.76944C18.3998 2.72102 18.7887 2.68873 19.1849 2.68066C20.2542 4.25441 20.972 6.1429 21.1963 8.21701Z" fill="white"/>
</g>
<mask id="mask1_914_5497" style="mask-type:luminance" maskUnits="userSpaceOnUse" x="0" y="0" width="9" height="15">
<path d="M2.38403 4.16553C2.38403 4.16553 0.133408 9.35484 4.30566 14.2133L4.24584 14.4877C3.96918 14.3424 3.70748 14.1648 3.44578 13.9712C0.125931 11.4612 -0.681601 6.52211 1.64379 2.93882C2.39151 1.77667 3.39344 0.888921 4.50754 0.315918C4.73933 0.461186 4.96364 0.614525 5.18796 0.784005C6.88527 2.07528 8.08909 3.84271 8.74708 5.80384C7.0049 7.60355 5.65154 9.82293 4.82158 12.3167C3.10931 10.8882 1.7709 8.41867 2.38403 4.16553Z" fill="white"/>
</mask>
<g mask="url(#mask1_914_5497)">
<path fill-rule="evenodd" clip-rule="evenodd" d="M2.36915 4.19802C2.36915 4.19802 0.133488 9.40347 4.32069 14.2458L4.26087 14.5121C3.98422 14.3668 3.72252 14.1973 3.46082 14.0036C0.133488 11.5099 -0.696475 6.57074 1.62144 2.97131C2.36915 1.80916 3.36361 0.921406 4.47023 0.340332C4.70202 0.485601 4.93381 0.638939 5.15065 0.808419C6.86292 2.09162 8.07421 3.85099 8.7322 5.81211C6.99751 7.6199 5.65162 9.84735 4.83661 12.3411C3.11687 10.9207 1.76351 8.45923 2.36915 4.19802Z" fill="white"/>
</g>
</svg>
