<svg width="26" height="26" viewBox="0 0 26 26" fill="none" xmlns="http://www.w3.org/2000/svg">
<mask id="mask0_1081_1784" style="mask-type:luminance" maskUnits="userSpaceOnUse" x="6" y="3" width="20" height="24">
<path d="M25.5449 10.2744C26.3785 18.0103 21.2501 25.0127 14.0739 25.9124C11.8539 26.1862 9.6884 25.8439 7.74031 25.0029C20.2171 23.4088 23.0713 12.2108 23.1528 11.8587C18.0063 21.267 11.4009 22.0396 6.43555 20.778C6.54428 19.2328 6.82516 17.7267 7.27821 16.3086C8.04838 13.7756 9.32596 11.4578 10.9932 9.52136C13.6933 6.37225 17.4082 4.2109 21.6759 3.67301C22.1561 3.61433 22.6273 3.57521 23.1075 3.56543C24.4032 5.4725 25.2731 7.76099 25.5449 10.2744Z" fill="white"/>
</mask>
<g mask="url(#mask0_1081_1784)">
<path fill-rule="evenodd" clip-rule="evenodd" d="M25.5449 10.2744C26.3785 18.0103 21.2501 25.0127 14.0739 25.9124C11.8539 26.1862 9.6884 25.8439 7.74031 25.0029C20.2171 23.4088 23.0713 12.2108 23.1528 11.8587C18.0063 21.267 11.4009 22.0396 6.43555 20.778C6.54428 19.2328 6.82516 17.7267 7.27821 16.3086C8.04838 13.7756 9.32596 11.4578 10.9932 9.52136C13.6933 6.37225 17.4082 4.2109 21.6759 3.67301C22.1561 3.61433 22.6273 3.57521 23.1075 3.56543C24.4032 5.4725 25.2731 7.76099 25.5449 10.2744Z" fill="#17BD57"/>
</g>
<mask id="mask1_1081_1784" style="mask-type:luminance" maskUnits="userSpaceOnUse" x="0" y="0" width="11" height="18">
<path d="M2.74864 5.36421C2.74864 5.36421 0.0213163 11.6527 5.07728 17.5401L5.00479 17.8726C4.66954 17.6966 4.35241 17.4815 4.03528 17.2467C0.0122554 14.2052 -0.966318 8.21993 1.85161 3.87767C2.7577 2.46937 3.97185 1.39359 5.32192 0.699219C5.60281 0.875256 5.87463 1.06107 6.14646 1.26645C8.20328 2.83123 9.66207 4.97302 10.4594 7.34952C8.34825 9.53043 6.70823 12.2199 5.70248 15.2419C3.62754 13.5108 2.00565 10.5182 2.74864 5.36421Z" fill="white"/>
</mask>
<g mask="url(#mask1_1081_1784)">
<path fill-rule="evenodd" clip-rule="evenodd" d="M2.7315 5.40524C2.7315 5.40524 0.0222983 11.7133 5.09638 17.5812L5.02389 17.9039C4.68864 17.7279 4.37151 17.5225 4.05438 17.2878C0.0222983 14.2658 -0.983457 8.28052 1.82541 3.9187C2.7315 2.5104 3.93659 1.43462 5.2776 0.730469C5.55848 0.906506 5.83937 1.09232 6.10214 1.2977C8.17707 2.8527 9.64493 4.98471 10.4423 7.36121C8.34017 9.5519 6.70921 12.2511 5.72158 15.2731C3.63758 13.5519 1.99757 10.569 2.7315 5.40524Z" fill="#17BD57"/>
</g>
</svg>
