<svg width="23" height="27" viewBox="0 0 23 27" fill="none" xmlns="http://www.w3.org/2000/svg">
<g clip-path="url(#clip0_490_2840)">
<path d="M13.7237 0.123596C8.38939 0.123596 6.50504 8.40914 4.75014 15.0739C4.11744 14.4329 2.16512 12.4872 2.16107 12.4913C1.76867 12.1025 1.31801 12.2278 1.0413 12.4985C0.898283 12.6467 0.818359 12.8444 0.818359 13.0502C0.818359 13.2561 0.898283 13.4538 1.0413 13.6019C1.05668 13.6157 3.68619 16.2363 4.59641 17.1433C4.84723 17.3858 5.20888 17.5305 5.56731 17.3187C5.94436 17.0899 5.99614 16.6793 6.00504 16.6793C9.12487 2.7297 11.9097 1.69017 13.7164 1.69017C15.2367 1.69017 16.9883 2.81296 16.9883 5.05773C19.2538 5.05773 20.6769 8.03242 18.8492 9.86494C20.3622 10.5925 21.0337 11.4962 21.0337 12.6327C21.0219 13.2466 20.7694 13.8313 20.3307 14.2611C19.8919 14.691 19.3019 14.9318 18.6874 14.9317C17.3055 14.9317 16.6024 14.0425 15.5255 14.0425C15.4224 14.0413 15.3201 14.0607 15.2247 14.0994C15.1292 14.1383 15.0424 14.1957 14.9693 14.2684C14.8964 14.3411 14.8386 14.4276 14.7994 14.5229C14.7603 14.6182 14.7406 14.7203 14.7415 14.8233V17.6396H12.7131V14.8347C12.7131 14.3941 12.3846 14.049 11.9849 14.049C11.9777 14.049 11.8102 14.0489 11.8151 14.0578L9.0933 14.3957C8.76401 14.4426 8.46221 14.7999 8.46221 15.1685C8.46221 15.601 8.81415 15.9566 9.29719 15.9518C9.34235 15.9557 9.38784 15.9532 9.4323 15.9445L11.1556 15.7238V18.5029C11.1556 18.857 11.5545 19.1989 11.9129 19.1997H15.5288C15.7366 19.1956 15.9347 19.111 16.0814 18.9638C16.228 18.8167 16.3119 18.6184 16.3152 18.4108V15.8726C17.0725 16.3357 18.1235 16.5144 18.6615 16.5144C20.6891 16.5144 22.626 14.9204 22.6163 12.5851C22.6082 10.4631 20.9876 9.40742 20.9876 9.40742C21.9367 6.87408 20.3994 4.42805 18.4058 3.7474C17.6841 1.13564 15.4502 0.123596 13.7237 0.123596Z" fill="white"/>
<path d="M13.7237 0.123596C8.38939 0.123596 6.50504 8.40914 4.75014 15.0739C4.11744 14.4329 2.16512 12.4872 2.16107 12.4913C1.76867 12.1025 1.31801 12.2278 1.0413 12.4985C0.898283 12.6467 0.818359 12.8444 0.818359 13.0502C0.818359 13.2561 0.898283 13.4538 1.0413 13.6019C1.05668 13.6157 3.68619 16.2363 4.59641 17.1433C4.84723 17.3858 5.20888 17.5305 5.56731 17.3187C5.94436 17.0899 5.99614 16.6793 6.00504 16.6793C9.12487 2.7297 11.9097 1.69017 13.7164 1.69017C15.2367 1.69017 16.9883 2.81296 16.9883 5.05773C19.2538 5.05773 20.6769 8.03242 18.8492 9.86494C20.3622 10.5925 21.0337 11.4962 21.0337 12.6327C21.0219 13.2466 20.7694 13.8313 20.3307 14.2611C19.8919 14.691 19.3019 14.9318 18.6874 14.9317C17.3055 14.9317 16.6024 14.0425 15.5255 14.0425C15.4224 14.0413 15.3201 14.0607 15.2247 14.0994C15.1292 14.1383 15.0424 14.1957 14.9693 14.2684C14.8964 14.3411 14.8386 14.4276 14.7994 14.5229C14.7603 14.6182 14.7406 14.7203 14.7415 14.8233V17.6396H12.7131V14.8347C12.7131 14.3941 12.3846 14.049 11.9849 14.049C11.9777 14.049 11.8102 14.0489 11.8151 14.0578L9.0933 14.3957C8.76401 14.4426 8.46221 14.7999 8.46221 15.1685C8.46221 15.601 8.81415 15.9566 9.29719 15.9518C9.34235 15.9557 9.38784 15.9532 9.4323 15.9445L11.1556 15.7238V18.5029C11.1556 18.857 11.5545 19.1989 11.9129 19.1997H15.5288C15.7366 19.1956 15.9347 19.111 16.0814 18.9638C16.228 18.8167 16.3119 18.6184 16.3152 18.4108V15.8726C17.0725 16.3357 18.1235 16.5144 18.6615 16.5144C20.6891 16.5144 22.626 14.9204 22.6163 12.5851C22.6082 10.4631 20.9876 9.40742 20.9876 9.40742C21.9367 6.87408 20.3994 4.42805 18.4058 3.7474C17.6841 1.13564 15.4502 0.123596 13.7237 0.123596Z" fill="white"/>
<path d="M11.4452 22.303C11.4452 22.9585 12.1782 23.3538 13.3822 23.9253C14.3385 24.3731 14.8879 24.846 14.8879 25.2251C14.8879 25.8394 14.2252 26.0577 13.6055 26.0577C12.6451 26.0577 12.0779 25.6762 11.764 24.8185L11.7381 24.7441H11.6572C11.4865 24.7441 11.3522 24.7514 11.277 24.846C11.2017 24.9406 11.2292 25.0464 11.2591 25.158L11.4695 26.0383C11.5261 26.2541 11.6022 26.2881 11.9461 26.3552C12.4686 26.4496 12.9977 26.5037 13.5286 26.5168C15.3628 26.5168 16.1832 25.7723 16.1832 25.0343C16.1832 24.4976 15.65 23.9835 14.5011 23.4104L13.9801 23.1574C13.1937 22.7831 12.7203 22.5592 12.7203 22.1655C12.7203 21.7719 13.2107 21.5189 13.917 21.5189C14.8337 21.5189 15.0788 22.0313 15.1913 22.4776L15.2123 22.5624H15.3013C15.506 22.5624 15.6347 22.5463 15.7059 22.4622C15.7282 22.437 15.7444 22.4072 15.7535 22.3748C15.7626 22.3425 15.7643 22.3085 15.7584 22.2754L15.6856 21.5124C15.6646 21.2699 15.4777 21.2319 15.2196 21.1818C14.8143 21.0989 14.4018 21.0567 13.9882 21.0557C12.3967 21.0557 11.4452 21.5237 11.4452 22.303Z" fill="white"/>
<path d="M16.7285 23.8469C16.7285 25.1718 17.8815 26.5144 20.0838 26.5144C21.1947 26.5144 21.8217 26.2606 22.2877 26.0132L22.4147 25.9445L22.2092 25.719L22.2206 25.7303C22.2047 25.7023 22.1808 25.6796 22.152 25.6652C22.1232 25.6508 22.0907 25.6453 22.0587 25.6495L21.9511 25.6859C21.7845 25.7667 21.2748 26.0003 20.3491 26.0003C19.2092 26.0003 17.9818 25.2574 17.9818 23.6221C17.9818 22.0661 19.3119 21.5148 20.4487 21.5148C21.2667 21.5148 21.7019 21.8074 21.7812 22.4104L21.7917 22.5091H21.8945C21.9908 22.5091 22.2497 22.5091 22.2497 22.3158V21.4089C22.2497 21.1874 21.994 21.1543 21.884 21.1389L21.778 21.1252C21.3883 21.0717 20.9949 21.0493 20.6016 21.0581C18.358 21.0556 16.7285 22.2302 16.7285 23.8469Z" fill="white"/>
<path d="M8.42577 21.1219L6.43703 21.1365L5.11258 21.1139L4.91111 21.109C4.88395 21.1082 4.8569 21.113 4.8317 21.1232C4.80651 21.1334 4.78371 21.1487 4.76476 21.1682C4.74581 21.1876 4.73112 21.2108 4.72163 21.2363C4.71215 21.2617 4.70806 21.2888 4.70965 21.316C4.70469 21.3464 4.70679 21.3776 4.71578 21.4072C4.72477 21.4367 4.74041 21.4638 4.7615 21.4863C4.78259 21.5089 4.80857 21.5263 4.83745 21.5373C4.86633 21.5482 4.89734 21.5524 4.9281 21.5496C5.7283 21.5496 5.75659 21.6167 5.76552 21.9214L5.77116 22.1146L5.7833 22.931V24.6932C5.7833 24.9858 5.77359 25.449 5.75416 25.8249C5.74934 25.9324 5.74284 26.0343 5.0365 26.0343C4.83991 26.0343 4.72017 26.0731 4.72017 26.2687C4.72017 26.3261 4.72017 26.4773 4.91111 26.4773H4.95722C5.03815 26.4732 5.26547 26.4635 6.36988 26.4635C7.54629 26.4635 7.78415 26.4748 7.86184 26.4773H7.90551C8.05927 26.4773 8.19277 26.4603 8.19277 26.2687C8.19277 26.0496 8.01312 26.0343 7.71458 26.0343C7.005 26.0343 7.00096 25.9324 6.99611 25.8265C6.97832 25.483 6.96457 25.0182 6.96457 24.6949V24.0627H7.55844C8.46945 24.0627 8.5722 24.0862 8.70249 24.7902C8.73728 24.9422 8.85942 24.9608 8.96139 24.9608C9.17578 24.9608 9.19925 24.8436 9.19925 24.7918L9.18225 24.5308C9.16187 24.3336 9.15162 24.1356 9.15149 23.9374V22.8559C9.15149 22.6942 8.95814 22.6942 8.85378 22.6942C8.68146 22.6942 8.64099 22.8041 8.53013 23.3134C8.48159 23.5082 8.1062 23.6197 7.49936 23.6197H6.96457V22.0346C6.96457 21.6037 7.04546 21.6013 7.13689 21.5964C7.48401 21.5819 8.32948 21.552 8.58192 21.552C8.79388 21.5447 9.00371 21.5965 9.18793 21.7015C9.47506 21.8761 9.74923 22.0712 10.0083 22.2852C10.1451 22.3959 10.2211 22.4598 10.332 22.4598C10.3959 22.4598 10.5884 22.4598 10.5884 22.2981C10.5884 22.2577 10.5723 22.2173 10.5076 22.0839C10.4339 21.9222 10.3085 21.653 10.1532 21.2432C10.1103 21.1147 9.95897 21.1147 9.68065 21.1147L8.42577 21.1219Z" fill="white"/>
<path d="M21.3379 2.72725C21.1131 2.7277 20.8921 2.67006 20.6963 2.55992C20.4965 2.44582 20.3304 2.28114 20.2146 2.08246C20.0988 1.88378 20.0375 1.65813 20.0369 1.42824C20.0359 1.19959 20.0957 0.974775 20.21 0.776711C20.3229 0.577062 20.4886 0.412331 20.689 0.300596C20.8858 0.18708 21.109 0.127319 21.3363 0.127319C21.5635 0.127319 21.7867 0.18708 21.9835 0.300596C22.1836 0.412797 22.3492 0.577417 22.4625 0.776711C22.5771 0.974697 22.6372 1.19951 22.6365 1.42824C22.6359 1.65824 22.5745 1.88401 22.4586 2.08273C22.3426 2.28144 22.1763 2.44606 21.9762 2.55992C21.7813 2.66931 21.5615 2.72692 21.3379 2.72725ZM21.3379 2.5292C21.5286 2.53021 21.7163 2.48145 21.8824 2.38774C22.0506 2.29322 22.1903 2.15531 22.2869 1.98842C22.3885 1.81936 22.4412 1.62543 22.439 1.42824C22.4396 1.23418 22.3888 1.04341 22.2918 0.875331C22.1964 0.706228 22.0565 0.566451 21.8872 0.471156C21.7198 0.374755 21.5299 0.324013 21.3367 0.324013C21.1434 0.324013 20.9535 0.374755 20.7861 0.471156C20.617 0.566748 20.4772 0.706455 20.3815 0.875331C20.2856 1.04372 20.2359 1.23447 20.2375 1.42824C20.2365 1.62528 20.2891 1.8189 20.3896 1.98842C20.4862 2.15539 20.6259 2.29332 20.7942 2.38774C20.96 2.48121 21.1474 2.52996 21.3379 2.5292Z" fill="white"/>
<path d="M21.9209 2.14689L21.683 1.7031C21.6469 1.62929 21.5972 1.56292 21.5365 1.50748C21.6163 1.47161 21.6838 1.41316 21.7307 1.33935C21.7762 1.26657 21.8005 1.18263 21.8011 1.09685C21.8017 1.02547 21.7842 0.955098 21.7501 0.892336C21.7191 0.831124 21.6714 0.779864 21.6126 0.744406C21.532 0.70593 21.4429 0.688411 21.3537 0.693483H20.8828V2.16871H21.1401V1.56164H21.289C21.2938 1.56164 21.3197 1.56811 21.3909 1.69502L21.4378 1.78394L21.6353 2.16063L21.6393 2.16871H21.9362L21.9209 2.14689ZM21.1191 1.37249V0.882637H21.289C21.3449 0.878269 21.4009 0.889462 21.4508 0.914968C21.4807 0.935749 21.5052 0.963491 21.522 0.995802C21.5386 1.03004 21.5469 1.0677 21.5462 1.10574C21.5464 1.17121 21.5254 1.23499 21.4864 1.28762C21.4606 1.31727 21.4282 1.34042 21.3918 1.35517C21.3554 1.36992 21.316 1.37585 21.2768 1.37249H21.1191Z" fill="white"/>
</g>
<defs>
<clipPath id="clip0_490_2840">
<rect width="21.8182" height="26.3933" fill="white" transform="translate(0.818359 0.123596)"/>
</clipPath>
</defs>
</svg>
