<svg width="207" height="64" viewBox="0 0 207 64" fill="none" xmlns="http://www.w3.org/2000/svg">
<path d="M76.1738 55.8493V23.3101H80.8347V55.8493H76.1738ZM89.7203 33.8273C90.8913 32.6422 91.8786 31.8522 92.6822 31.4325C93.4858 31.0375 94.3583 30.7906 95.2996 30.7166C96.241 30.6425 97.1135 30.6672 97.94 30.7659C98.7666 30.8894 99.4095 30.9881 99.8917 31.0869C101.109 31.3831 102.211 31.9016 103.198 32.6669C104.185 33.4323 105.035 34.3704 105.746 35.4814C106.458 36.5677 107.032 37.7774 107.446 39.1106C107.859 40.4438 108.111 41.8016 108.157 43.1842V55.8986H103.29V43.2582C103.29 42.2707 103.106 41.3078 102.785 40.3944C102.44 39.4809 101.958 38.6909 101.338 37.9996C100.741 37.333 100.006 36.7899 99.2029 36.3949C98.3763 35.9752 97.5038 35.7777 96.5854 35.7777C95.6899 35.7777 94.8175 35.9752 93.9909 36.3949C93.1873 36.7899 92.4526 37.333 91.8097 37.9996C91.1668 38.6909 90.6617 39.4809 90.2943 40.3944C89.904 41.3078 89.7203 42.2707 89.7203 43.2582V55.8986H84.8987V30.7412H89.7203V33.8273ZM130.52 52.3435C129.12 53.8495 127.559 54.8617 125.814 55.4049C124.069 55.9233 122.37 56.1949 120.717 56.1949C119.109 56.1949 117.617 55.8493 116.239 55.2074C114.839 54.5408 113.622 53.652 112.612 52.5163C111.578 51.3807 110.752 50.0475 110.155 48.5168C109.558 46.9862 109.259 45.3814 109.259 43.6779C109.259 41.9497 109.558 40.2956 110.155 38.7403C110.752 37.1849 111.578 35.827 112.612 34.642C113.622 33.4816 114.839 32.5682 116.239 31.8769C117.617 31.2103 119.109 30.8647 120.717 30.8647C122.439 30.8647 124.069 31.1363 125.63 31.6547C127.191 32.1485 128.638 33.1113 129.946 34.5432L126.778 38.4687C125.974 37.654 125.01 37.0368 123.931 36.6171C122.829 36.2221 121.773 36.0245 120.717 36.0245C119.798 36.0245 118.926 36.2221 118.122 36.6171C117.318 37.0368 116.607 37.5799 116.01 38.2959C115.39 38.9871 114.908 39.8019 114.563 40.7153C114.219 41.6288 114.058 42.6163 114.058 43.6779C114.058 44.6655 114.219 45.6283 114.563 46.5171C114.908 47.4059 115.39 48.1959 116.01 48.8872C116.607 49.5784 117.318 50.1216 118.122 50.5413C118.926 50.9363 119.798 51.1338 120.717 51.1338C121.245 51.1338 121.819 51.0844 122.461 51.0104C123.127 50.9363 123.77 50.7882 124.413 50.6153C125.056 50.4178 125.676 50.171 126.273 49.8747C126.87 49.6031 127.375 49.2328 127.788 48.8378L130.52 52.3435ZM140.187 30.5931C141.817 30.5931 143.355 30.9141 144.756 31.5806C146.179 32.2225 147.419 33.136 148.452 34.2964C149.509 35.4567 150.312 36.7899 150.909 38.3206C151.483 39.8265 151.782 41.456 151.782 43.1842C151.782 44.9617 151.483 46.6158 150.909 48.1465C150.312 49.7019 149.509 51.035 148.452 52.1707C147.419 53.3064 146.179 54.2198 144.756 54.8617C143.355 55.5283 141.817 55.8493 140.187 55.8493C138.511 55.8493 136.949 55.5283 135.526 54.8617C134.102 54.2198 132.862 53.3064 131.806 52.1707C130.773 51.035 129.946 49.7019 129.35 48.1465C128.753 46.6158 128.454 44.9617 128.454 43.1842C128.454 41.456 128.753 39.8265 129.35 38.3206C129.946 36.7899 130.773 35.4567 131.806 34.2964C132.862 33.136 134.102 32.2225 135.526 31.5806C136.949 30.9141 138.511 30.5931 140.187 30.5931ZM140.347 50.7882C141.243 50.7882 142.115 50.6153 142.942 50.2203C143.746 49.8253 144.48 49.3069 145.123 48.6403C145.766 47.949 146.271 47.159 146.639 46.2455C147.029 45.332 147.213 44.3445 147.213 43.2829C147.213 42.2954 147.029 41.3325 146.639 40.4191C146.271 39.5056 145.766 38.7156 145.123 38.049C144.48 37.3824 143.746 36.8393 142.942 36.4442C142.115 36.0245 141.243 35.827 140.347 35.827C139.406 35.827 138.511 36.0245 137.661 36.4442C136.835 36.8393 136.1 37.3824 135.434 38.049C134.768 38.7156 134.263 39.5056 133.896 40.4191C133.528 41.3325 133.322 42.2954 133.322 43.2829C133.322 44.3445 133.528 45.332 133.896 46.2455C134.263 47.159 134.768 47.949 135.434 48.6403C136.1 49.3069 136.835 49.8253 137.661 50.2203C138.511 50.6153 139.406 50.7882 140.347 50.7882ZM165.053 30.5931C166.729 30.5931 168.267 30.9141 169.69 31.5806C171.137 32.2225 172.377 33.136 173.41 34.2964C174.466 35.4567 175.293 36.7899 175.867 38.3206C176.464 39.8265 176.762 41.456 176.762 43.1842C176.762 44.9617 176.464 46.6158 175.867 48.1465C175.293 49.7019 174.466 51.035 173.41 52.1707C172.377 53.3064 171.137 54.2198 169.69 54.8617C168.267 55.5283 166.729 55.8493 165.053 55.8493C164.249 55.8493 163.468 55.7752 162.711 55.5777C161.976 55.4049 161.218 55.1827 160.483 54.8864C160.162 54.7383 159.795 54.5408 159.381 54.3186C158.991 54.0964 158.532 53.8001 158.027 53.4545V55.8493H153.366V24.6679H158.027V33.0373C158.716 32.5929 159.221 32.2719 159.565 32.0744C159.909 31.8769 160.208 31.7288 160.483 31.6053C161.953 30.9141 163.468 30.5931 165.053 30.5931ZM164.869 50.7882C165.787 50.7882 166.683 50.6153 167.532 50.2203C168.382 49.8253 169.139 49.3069 169.782 48.6403C170.448 47.949 170.953 47.159 171.344 46.2455C171.711 45.332 171.895 44.3445 171.895 43.2829C171.895 42.2954 171.711 41.3325 171.344 40.4191C170.953 39.5056 170.448 38.7156 169.782 38.049C169.139 37.3824 168.382 36.8393 167.532 36.4442C166.683 36.0245 165.787 35.827 164.869 35.827C163.468 35.827 162.205 36.2467 161.103 37.0861C160.001 37.9255 159.175 39.0365 158.601 40.4438V40.3944C158.279 41.135 158.073 41.9744 158.027 42.9126V43.2829C158.027 44.3445 158.21 45.332 158.578 46.2455C158.945 47.159 159.45 47.949 160.093 48.6403C160.736 49.3069 161.471 49.8253 162.297 50.2203C163.124 50.6153 163.973 50.7882 164.869 50.7882ZM177.864 55.8493V30.7412H182.525V55.8493H177.864ZM180.39 24.7667C181.079 24.7667 181.653 24.9889 182.158 25.4333C182.64 25.8776 182.893 26.4702 182.893 27.2108C182.893 27.9268 182.64 28.5193 182.158 28.9884C181.653 29.4821 181.079 29.729 180.39 29.729C179.701 29.729 179.127 29.4821 178.668 28.9884C178.186 28.5193 177.956 27.9268 177.956 27.2108C177.956 26.4702 178.186 25.8776 178.668 25.4333C179.127 24.9889 179.701 24.7667 180.39 24.7667ZM195.406 30.5931C197.036 30.5931 198.574 30.9141 199.998 31.5806C201.398 32.2225 202.638 33.136 203.671 34.2964C204.728 35.4567 205.531 36.7899 206.128 38.3206C206.702 39.8265 207.001 41.456 207.001 43.1842C207.001 44.9617 206.702 46.6158 206.128 48.1465C205.531 49.7019 204.728 51.035 203.671 52.1707C202.638 53.3064 201.398 54.2198 199.998 54.8617C198.574 55.5283 197.036 55.8493 195.406 55.8493C193.73 55.8493 192.168 55.5283 190.745 54.8617C189.321 54.2198 188.082 53.3064 187.025 52.1707C185.992 51.035 185.166 49.7019 184.569 48.1465C183.972 46.6158 183.673 44.9617 183.673 43.1842C183.673 41.456 183.972 39.8265 184.569 38.3206C185.166 36.7899 185.992 35.4567 187.025 34.2964C188.082 33.136 189.321 32.2225 190.745 31.5806C192.168 30.9141 193.73 30.5931 195.406 30.5931ZM195.59 50.7882C196.485 50.7882 197.334 50.6153 198.161 50.2203C198.965 49.8253 199.699 49.3069 200.342 48.6403C200.985 47.949 201.49 47.159 201.881 46.2455C202.248 45.332 202.432 44.3445 202.432 43.2829C202.432 42.2954 202.248 41.3325 201.881 40.4191C201.49 39.5056 200.985 38.7156 200.342 38.049C199.699 37.3824 198.965 36.8393 198.161 36.4442C197.334 36.0245 196.485 35.827 195.59 35.827C194.625 35.827 193.73 36.0245 192.903 36.4442C192.054 36.8393 191.319 37.3824 190.653 38.049C190.01 38.7156 189.482 39.5056 189.115 40.4191C188.747 41.3325 188.564 42.2954 188.564 43.2829C188.564 44.3445 188.747 45.332 189.115 46.2455C189.482 47.159 190.01 47.949 190.653 48.6403C191.319 49.3069 192.054 49.8253 192.903 50.2203C193.73 50.6153 194.625 50.7882 195.59 50.7882Z" fill="white"/>
<path fill-rule="evenodd" clip-rule="evenodd" d="M64.1183 24.2235C66.2306 43.752 53.2351 61.4289 35.0507 63.7002C29.4255 64.3915 23.938 63.5274 19.0016 61.4042C50.6177 57.38 57.8501 29.1118 58.0568 28.2231C45.0154 51.9732 28.2775 53.9236 15.6953 50.7388C15.9708 46.8381 16.6826 43.036 17.8306 39.4562C19.7822 33.062 23.0196 27.2108 27.2443 22.3225C34.0864 14.3729 43.5 8.91678 54.3143 7.55893C55.5312 7.4108 56.7251 7.31204 57.942 7.28735C61.2253 12.1016 63.4295 17.8786 64.1183 24.2235Z" fill="#044A27"/>
<mask id="mask0_490_2605" style="mask-type:luminance" maskUnits="userSpaceOnUse" x="15" y="7" width="50" height="57">
<path d="M64.1183 24.2235C66.2306 43.752 53.2351 61.4289 35.0507 63.7002C29.4255 64.3915 23.938 63.5274 19.0016 61.4042C50.6177 57.38 57.8501 29.1118 58.0568 28.2231C45.0154 51.9732 28.2775 53.9236 15.6953 50.7388C15.9708 46.8381 16.6826 43.036 17.8306 39.4562C19.7822 33.062 23.0196 27.2108 27.2443 22.3225C34.0864 14.3729 43.5 8.91678 54.3143 7.55893C55.5312 7.4108 56.7251 7.31204 57.942 7.28735C61.2253 12.1016 63.4295 17.8786 64.1183 24.2235Z" fill="white"/>
</mask>
<g mask="url(#mask0_490_2605)">
<path fill-rule="evenodd" clip-rule="evenodd" d="M64.1183 24.2235C66.2306 43.752 53.2351 61.4289 35.0507 63.7002C29.4255 64.3915 23.938 63.5274 19.0016 61.4042C50.6177 57.38 57.8501 29.1118 58.0568 28.2231C45.0154 51.9732 28.2775 53.9236 15.6953 50.7388C15.9708 46.8381 16.6826 43.036 17.8306 39.4562C19.7822 33.062 23.0196 27.2108 27.2443 22.3225C34.0864 14.3729 43.5 8.91678 54.3143 7.55893C55.5312 7.4108 56.7251 7.31204 57.942 7.28735C61.2253 12.1016 63.4295 17.8786 64.1183 24.2235Z" fill="#17D460"/>
</g>
<path fill-rule="evenodd" clip-rule="evenodd" d="M6.35132 11.83C6.35132 11.83 -0.559686 27.7046 12.2521 42.567L12.0684 43.4064C11.2189 42.962 10.4153 42.4189 9.61166 41.8264C-0.582646 34.1483 -3.06234 19.039 4.07826 8.07742C6.37428 4.5223 9.45094 1.80658 12.872 0.0537109C13.5838 0.498101 14.2726 0.967179 14.9614 1.48563C20.1733 5.43577 23.8699 10.8425 25.8904 16.8418C20.5407 22.3473 16.3849 29.1366 13.8363 36.7653C8.57845 32.3954 4.46859 24.8408 6.35132 11.83Z" fill="#17BD57"/>
<mask id="mask1_490_2605" style="mask-type:luminance" maskUnits="userSpaceOnUse" x="0" y="0" width="26" height="44">
<path d="M6.35132 11.83C6.35132 11.83 -0.559686 27.7046 12.2521 42.567L12.0684 43.4064C11.2189 42.962 10.4153 42.4189 9.61166 41.8264C-0.582646 34.1483 -3.06234 19.039 4.07826 8.07742C6.37428 4.5223 9.45094 1.80658 12.872 0.0537109C13.5838 0.498101 14.2726 0.967179 14.9614 1.48563C20.1733 5.43577 23.8699 10.8425 25.8904 16.8418C20.5407 22.3473 16.3849 29.1366 13.8363 36.7653C8.57845 32.3954 4.46859 24.8408 6.35132 11.83Z" fill="white"/>
</mask>
<g mask="url(#mask1_490_2605)">
<path fill-rule="evenodd" clip-rule="evenodd" d="M6.30529 11.9287C6.30529 11.9287 -0.559795 27.8527 12.2979 42.6657L12.1142 43.4804C11.2647 43.036 10.4611 42.5175 9.65747 41.925C-0.559795 34.2963 -3.10837 19.1871 4.00927 8.17608C6.30529 4.62096 9.35899 1.90525 12.7571 0.127686C13.4689 0.572075 14.1806 1.04115 14.8465 1.55961C20.1043 5.48505 23.8239 10.8671 25.8444 16.8664C20.5176 22.3966 16.3848 29.2105 13.8821 36.8392C8.6013 32.4941 4.44552 24.9641 6.30529 11.9287Z" fill="#158F44"/>
</g>
</svg>
