<svg width="77" height="94" viewBox="0 0 77 94" fill="none" xmlns="http://www.w3.org/2000/svg">
<g clip-path="url(#clip0_904_5328)">
<path d="M45.18 0.162354C26.5151 0.162354 19.9218 29.3228 13.7813 52.7791C11.5675 50.5231 4.73628 43.6754 4.72212 43.6896C3.34908 42.3212 1.77221 42.7622 0.804013 43.7152C0.303579 44.2365 0.0239258 44.9326 0.0239258 45.6568C0.0239258 46.3812 0.303579 47.0772 0.804013 47.5985C0.857803 47.6469 10.0585 56.8701 13.2434 60.0621C14.121 60.9155 15.3864 61.4248 16.6406 60.6795C17.9599 59.8743 18.1411 58.4291 18.1722 58.4291C29.0886 9.33438 38.8328 5.67581 45.1545 5.67581C50.474 5.67581 56.6029 9.62739 56.6029 17.5277C64.5299 17.5277 69.5096 27.997 63.1144 34.4464C68.4083 37.007 70.758 40.1875 70.758 44.1875C70.7165 46.3479 69.8332 48.4056 68.298 49.9186C66.7628 51.4315 64.6983 52.2788 62.5481 52.2784C57.7128 52.2784 55.2527 49.1491 51.4846 49.1491C51.1239 49.1448 50.7659 49.2131 50.4319 49.3495C50.0977 49.4861 49.7941 49.6882 49.5385 49.9441C49.2832 50.2 49.0811 50.5045 48.9441 50.8399C48.8072 51.1754 48.7383 51.5347 48.7413 51.8971V61.8089H41.644V51.937C41.644 50.3865 40.4946 49.1718 39.0961 49.1718C39.0706 49.1718 38.4846 49.1717 38.5016 49.203L28.9781 50.3922C27.8259 50.5572 26.77 51.8147 26.77 53.1119C26.77 54.634 28.0014 55.8857 29.6916 55.8687C29.8496 55.8824 30.0087 55.8738 30.1643 55.843L36.1943 55.0664V64.8472C36.1943 66.0934 37.59 67.2967 38.8441 67.2997H51.4959C52.2231 67.285 52.9162 66.9873 53.4296 66.4695C53.9428 65.9516 54.236 65.2538 54.2476 64.523V55.5899C56.8975 57.22 60.5749 57.8487 62.4575 57.8487C69.552 57.8487 76.3294 52.2386 76.2955 44.0197C76.2671 36.5516 70.5966 32.8362 70.5966 32.8362C73.9174 23.9203 68.5386 15.3116 61.5629 12.9161C59.0377 3.72418 51.2212 0.162354 45.18 0.162354Z" fill="white"/>
<path d="M45.18 0.162354C26.5151 0.162354 19.9218 29.3228 13.7813 52.7791C11.5675 50.5231 4.73628 43.6754 4.72212 43.6896C3.34908 42.3212 1.77221 42.7622 0.804013 43.7152C0.303579 44.2365 0.0239258 44.9326 0.0239258 45.6568C0.0239258 46.3812 0.303579 47.0772 0.804013 47.5985C0.857803 47.6469 10.0585 56.8701 13.2434 60.0621C14.121 60.9155 15.3864 61.4248 16.6406 60.6795C17.9599 59.8743 18.1411 58.4291 18.1722 58.4291C29.0886 9.33438 38.8328 5.67581 45.1545 5.67581C50.474 5.67581 56.6029 9.62739 56.6029 17.5277C64.5299 17.5277 69.5096 27.997 63.1144 34.4464C68.4083 37.007 70.758 40.1875 70.758 44.1875C70.7165 46.3479 69.8332 48.4056 68.298 49.9186C66.7628 51.4315 64.6983 52.2788 62.5481 52.2784C57.7128 52.2784 55.2527 49.1491 51.4846 49.1491C51.1239 49.1448 50.7659 49.2131 50.4319 49.3495C50.0977 49.4861 49.7941 49.6882 49.5385 49.9441C49.2832 50.2 49.0811 50.5045 48.9441 50.8399C48.8072 51.1754 48.7383 51.5347 48.7413 51.8971V61.8089H41.644V51.937C41.644 50.3865 40.4946 49.1718 39.0961 49.1718C39.0706 49.1718 38.4846 49.1717 38.5016 49.203L28.9781 50.3922C27.8259 50.5572 26.77 51.8147 26.77 53.1119C26.77 54.634 28.0014 55.8857 29.6916 55.8687C29.8496 55.8824 30.0087 55.8738 30.1643 55.843L36.1943 55.0664V64.8472C36.1943 66.0934 37.59 67.2967 38.8441 67.2997H51.4959C52.2231 67.285 52.9162 66.9873 53.4296 66.4695C53.9428 65.9516 54.236 65.2538 54.2476 64.523V55.5899C56.8975 57.22 60.5749 57.8487 62.4575 57.8487C69.552 57.8487 76.3294 52.2386 76.2955 44.0197C76.2671 36.5516 70.5966 32.8362 70.5966 32.8362C73.9174 23.9203 68.5386 15.3116 61.5629 12.9161C59.0377 3.72418 51.2212 0.162354 45.18 0.162354Z" fill="white"/>
<path d="M37.2075 78.2213C37.2075 80.5284 39.7724 81.9196 43.9849 83.9309C47.3311 85.5072 49.2534 87.1713 49.2534 88.5056C49.2534 90.6678 46.9349 91.4358 44.7663 91.4358C41.4059 91.4358 39.4213 90.0931 38.3229 87.0747L38.2324 86.8128H37.9492C37.3519 86.8128 36.882 86.8385 36.6187 87.1713C36.3554 87.5043 36.4516 87.8769 36.5563 88.2695L37.2924 91.3676C37.4906 92.1273 37.7568 92.2467 38.96 92.4829C40.7884 92.8152 42.6397 93.0055 44.4974 93.0518C50.9152 93.0518 53.7858 90.4316 53.7858 87.8342C53.7858 85.9452 51.9201 84.1359 47.9002 82.1187L46.0771 81.2283C43.3253 79.9112 41.6691 79.123 41.6691 77.7377C41.6691 76.3522 43.3848 75.4618 45.8563 75.4618C49.0638 75.4618 49.9216 77.2654 50.3151 78.8358L50.3887 79.1345H50.7001C51.4163 79.1345 51.8664 79.0776 52.1156 78.7817C52.1935 78.6931 52.2504 78.5881 52.2824 78.4743C52.3142 78.3605 52.3202 78.2409 52.2996 78.1245L52.0447 75.439C51.9711 74.5854 51.3172 74.4517 50.4142 74.2754C48.9961 73.9838 47.5526 73.8352 46.1053 73.8315C40.5368 73.8315 37.2075 75.4787 37.2075 78.2213Z" fill="white"/>
<path d="M55.6938 83.655C55.6938 88.3179 59.728 93.0432 67.434 93.0432C71.321 93.0432 73.515 92.1499 75.1456 91.2793L75.5901 91.0375L74.871 90.2439L74.9107 90.2837C74.8552 90.185 74.7716 90.1052 74.6708 90.0545C74.57 90.0038 74.4563 89.9845 74.3444 89.9992L73.9679 90.1272C73.3848 90.4117 71.6013 91.2339 68.3625 91.2339C64.3737 91.2339 60.0791 88.6194 60.0791 82.8641C60.0791 77.3877 64.7332 75.4475 68.7108 75.4475C71.5729 75.4475 73.096 76.4773 73.3734 78.5996L73.4102 78.9467H73.7698C74.1066 78.9467 75.0126 78.9467 75.0126 78.2667V75.0748C75.0126 74.2952 74.118 74.1785 73.733 74.1245L73.3621 74.0762C71.9984 73.888 70.6219 73.809 69.2458 73.8401C61.3955 73.8315 55.6938 77.9652 55.6938 83.655Z" fill="white"/>
<path d="M26.6423 74.0648L19.6837 74.116L15.0494 74.0363L14.3445 74.0194C14.2494 74.0165 14.1548 74.0334 14.0666 74.0693C13.9784 74.105 13.8987 74.159 13.8324 74.2275C13.7661 74.296 13.7147 74.3776 13.6815 74.4671C13.6483 74.5567 13.634 74.6522 13.6395 74.7477C13.6222 74.8548 13.6295 74.9647 13.661 75.0686C13.6924 75.1725 13.7472 75.2679 13.821 75.3472C13.8948 75.4266 13.9857 75.4879 14.0867 75.5265C14.1878 75.5651 14.2963 75.5799 14.4039 75.5697C17.2038 75.5697 17.3028 75.8059 17.334 76.8785L17.3538 77.5584L17.3963 80.4318V86.6337C17.3963 87.6635 17.3623 89.2937 17.2943 90.6165C17.2774 90.9949 17.2547 91.3534 14.7832 91.3534C14.0953 91.3534 13.6763 91.49 13.6763 92.1784C13.6763 92.3804 13.6763 92.9125 14.3445 92.9125H14.5058C14.789 92.8983 15.5844 92.864 19.4487 92.864C23.565 92.864 24.3973 92.9039 24.6691 92.9125H24.8219C25.3599 92.9125 25.8271 92.8527 25.8271 92.1784C25.8271 91.4074 25.1985 91.3534 24.1539 91.3534C21.671 91.3534 21.6569 90.9949 21.6399 90.6223C21.5777 89.4132 21.5296 87.7773 21.5296 86.6394V84.4147H23.6075C26.7952 84.4147 27.1547 84.4971 27.6106 86.9751C27.7323 87.51 28.1597 87.5754 28.5165 87.5754C29.2666 87.5754 29.3487 87.1628 29.3487 86.9808L29.2892 86.0619C29.2179 85.3681 29.1821 84.6712 29.1817 83.9736V80.1672C29.1817 79.5982 28.5051 79.5982 28.1399 79.5982C27.537 79.5982 27.3954 79.985 27.0075 81.7774C26.8377 82.463 25.5241 82.8556 23.4008 82.8556H21.5296V77.2767C21.5296 75.7605 21.8126 75.7519 22.1325 75.7348C23.3471 75.6835 26.3054 75.5783 27.1887 75.5783C27.9304 75.5528 28.6645 75.7349 29.3091 76.1046C30.3138 76.7191 31.2731 77.4056 32.1797 78.1587C32.6583 78.5484 32.9243 78.7731 33.3122 78.7731C33.5358 78.7731 34.2096 78.7731 34.2096 78.2042C34.2096 78.0619 34.153 77.9197 33.9265 77.4503C33.6688 76.8814 33.2301 75.9339 32.6865 74.4916C32.5364 74.0392 32.007 74.0392 31.0332 74.0392L26.6423 74.0648Z" fill="white"/>
<path d="M71.8225 9.32582C71.0361 9.32742 70.2628 9.12454 69.5776 8.73692C68.8785 8.33537 68.2972 7.75578 67.8921 7.05655C67.4871 6.35731 67.2726 5.56313 67.2703 4.75403C67.267 3.94932 67.476 3.15811 67.8761 2.46103C68.271 1.75838 68.8509 1.17862 69.5521 0.785372C70.2406 0.385862 71.0217 0.175537 71.8168 0.175537C72.612 0.175537 73.3931 0.385862 74.0816 0.785372C74.7817 1.18026 75.3611 1.75963 75.7576 2.46103C76.1587 3.15783 76.3687 3.94906 76.3663 4.75403C76.3643 5.56352 76.1495 6.35812 75.7439 7.05747C75.3382 7.75684 74.756 8.33618 74.0561 8.73692C73.3739 9.12193 72.6049 9.32469 71.8225 9.32582ZM71.8225 8.62882C72.49 8.63237 73.1466 8.46076 73.7277 8.13096C74.3163 7.7983 74.8051 7.31293 75.1432 6.72557C75.4989 6.13055 75.6831 5.44805 75.6754 4.75403C75.6776 4.07106 75.4999 3.39968 75.1602 2.80812C74.8265 2.21297 74.337 1.72103 73.7447 1.38565C73.1589 1.04637 72.4944 0.867788 71.8183 0.867788C71.142 0.867788 70.4777 1.04637 69.8917 1.38565C69.3003 1.72208 68.811 2.21377 68.4762 2.80812C68.1405 3.40074 67.9666 4.07208 67.9724 4.75403C67.9688 5.44751 68.1528 6.12894 68.5046 6.72557C68.8424 7.3132 69.3313 7.79863 69.9201 8.13096C70.5004 8.4599 71.1561 8.63147 71.8225 8.62882Z" fill="white"/>
<path d="M73.8621 7.28321L73.0297 5.72135C72.9035 5.46155 72.7297 5.22799 72.5174 5.03288C72.7965 4.90664 73.0328 4.7009 73.1968 4.44114C73.3558 4.185 73.4411 3.88957 73.4431 3.58767C73.4451 3.33644 73.3838 3.08879 73.2648 2.8679C73.1561 2.65247 72.9893 2.47206 72.7836 2.34727C72.5014 2.21186 72.1898 2.1502 71.8775 2.16805H70.23V7.36002H71.1302V5.22349H71.6511C71.6681 5.22349 71.7587 5.24625 72.0077 5.6929L72.172 6.00584L72.8628 7.33157L72.8769 7.36002H73.9159L73.8621 7.28321ZM71.0566 4.55778V2.83377H71.6511C71.8467 2.8184 72.0426 2.85779 72.2173 2.94756C72.322 3.02069 72.4076 3.11833 72.4664 3.23204C72.5246 3.35254 72.5537 3.48508 72.5514 3.61896C72.5518 3.8494 72.4783 4.07385 72.3419 4.25907C72.2518 4.36342 72.1384 4.44489 72.0109 4.49681C71.8834 4.54872 71.7456 4.56961 71.6086 4.55778H71.0566Z" fill="white"/>
</g>
<defs>
<clipPath id="clip0_904_5328">
<rect width="76.3423" height="92.8894" fill="white" transform="translate(0.0239258 0.162354)"/>
</clipPath>
</defs>
</svg>
