<svg width="50" height="50" viewBox="0 0 50 50" fill="none" xmlns="http://www.w3.org/2000/svg">
<path d="M46.0625 44.7087L4.97917 3.60449L2.3125 6.25033L15.9375 19.8753C14.0417 22.9795 12.5 26.3545 12.5 29.6462C12.5 36.542 18.1042 42.1462 25 42.1462C26.7261 42.1539 28.4344 41.798 30.0138 41.1016C31.5932 40.4052 33.0082 39.384 34.1667 38.1045L43.4167 47.3545L46.0625 44.7087ZM25 37.9795C20.375 37.9795 16.6667 34.2712 16.6667 29.6462C16.6667 28.1253 17.7083 25.5628 19.0417 22.9795L31.25 35.167C29.7083 36.8962 27.5 37.9795 25 37.9795ZM23.2083 16.542L20.2292 13.542C22.0208 11.2087 23.4375 9.60449 23.4375 9.60449L25 7.85449L26.5625 9.60449C26.5625 9.60449 29.2292 12.6253 31.9167 16.542C34.6042 20.4587 37.5 25.1462 37.5 29.6462C37.5 30.0212 37.5 30.3962 37.4375 30.7712L32.2083 25.542C31.25 23.3962 29.9375 20.9795 28.5 18.8962C26.75 16.3545 25.9167 15.4587 25 14.3753C24.4375 15.0212 23.9583 15.6253 23.2083 16.542Z" fill="#17AA61"/>
</svg>
