<svg width="50" height="50" viewBox="0 0 50 50" fill="none" xmlns="http://www.w3.org/2000/svg">
<path d="M35.916 29.9489C35.5109 32.212 34.422 34.2966 32.7962 35.9221C31.1703 37.5477 29.0854 38.636 26.8223 39.0407C26.7364 39.0545 26.6495 39.0616 26.5625 39.0622C26.1706 39.0621 25.793 38.9147 25.5046 38.6492C25.2163 38.3838 25.0382 38.0196 25.0058 37.629C24.9733 37.2384 25.0889 36.8499 25.3294 36.5405C25.57 36.2311 25.9181 36.0234 26.3047 35.9587C29.541 35.4137 32.2871 32.6677 32.8359 29.4255C32.9053 29.0168 33.1343 28.6524 33.4724 28.4125C33.8104 28.1725 34.23 28.0768 34.6387 28.1462C35.0474 28.2156 35.4118 28.4445 35.6517 28.7826C35.8916 29.1207 35.9874 29.5402 35.918 29.9489H35.916ZM42.1875 28.1247C42.1875 32.6831 40.3767 37.0548 37.1534 40.2781C33.9301 43.5014 29.5584 45.3122 25 45.3122C20.4416 45.3122 16.0699 43.5014 12.8466 40.2781C9.62332 37.0548 7.8125 32.6831 7.8125 28.1247C7.8125 22.6716 9.96094 17.0954 14.1914 11.5524C14.3253 11.3769 14.4949 11.2318 14.689 11.1265C14.8831 11.0213 15.0972 10.9584 15.3174 10.942C15.5375 10.9256 15.7587 10.956 15.9662 11.0313C16.1738 11.1065 16.363 11.2249 16.5215 11.3786L21.2324 15.9509L25.5293 4.15203C25.6151 3.9167 25.7563 3.70547 25.9409 3.53613C26.1255 3.36679 26.3481 3.24431 26.5899 3.17901C26.8317 3.11372 27.0857 3.10753 27.3304 3.16096C27.5752 3.21438 27.8035 3.32587 27.9961 3.48601C32.2676 7.03093 42.1875 16.5134 42.1875 28.1247ZM39.0625 28.1247C39.0625 19.1227 32.0723 11.3434 27.6934 7.35711L23.3437 19.2848C23.2545 19.5298 23.1053 19.7486 22.9099 19.9211C22.7144 20.0937 22.4789 20.2146 22.2247 20.2729C21.9706 20.3311 21.7059 20.3249 21.4548 20.2546C21.2037 20.1844 20.9742 20.0524 20.7871 19.8708L15.6367 14.8747C12.5176 19.3766 10.9375 23.8278 10.9375 28.1247C10.9375 31.8543 12.4191 35.4311 15.0563 38.0684C17.6935 40.7056 21.2704 42.1872 25 42.1872C28.7296 42.1872 32.3065 40.7056 34.9437 38.0684C37.5809 35.4311 39.0625 31.8543 39.0625 28.1247Z" fill="#17AA61"/>
</svg>
