<svg width="135" height="134" viewBox="0 0 135 134" fill="none" xmlns="http://www.w3.org/2000/svg">
<path d="M60.7255 130.108L61.3774 122.865L62.2545 122.943L61.6026 130.187L60.7255 130.108Z" fill="#FEFFFE"/>
<path d="M47.5193 127.38L49.4541 120.37L50.2757 120.596L52.5768 127.155L52.6453 127.174L54.1644 121.67L55.0134 121.904L53.0785 128.915L52.257 128.688L49.946 122.112L49.8775 122.093L48.3546 127.611L47.5193 127.38Z" fill="#FEFFFE"/>
<path d="M37.8628 120.766L38.6562 121.148C38.5933 121.399 38.5788 121.639 38.6129 121.868C38.6449 122.096 38.7158 122.309 38.8257 122.507C38.9324 122.705 39.0717 122.883 39.2434 123.039C39.4151 123.195 39.6098 123.326 39.8273 123.43C40.2241 123.622 40.6318 123.694 41.0504 123.649C41.4669 123.603 41.8641 123.43 42.2419 123.131C42.6175 122.831 42.942 122.397 43.2152 121.83C43.4885 121.263 43.6252 120.739 43.6255 120.258C43.6236 119.776 43.511 119.358 43.2876 119.003C43.0621 118.648 42.751 118.374 42.3542 118.183C42.1367 118.079 41.9133 118.008 41.684 117.971C41.4547 117.934 41.2297 117.935 41.009 117.973C40.7851 118.012 40.574 118.091 40.3756 118.208C40.174 118.326 39.9954 118.487 39.8396 118.691L39.0461 118.309C39.2671 118.003 39.5202 117.755 39.8054 117.567C40.0906 117.378 40.3952 117.248 40.7192 117.175C41.0422 117.105 41.3729 117.092 41.7113 117.137C42.0476 117.18 42.3811 117.282 42.7117 117.441C43.2705 117.71 43.7018 118.086 44.0054 118.569C44.3091 119.051 44.4645 119.604 44.4716 120.228C44.4787 120.851 44.3159 121.509 43.9831 122.2C43.6503 122.891 43.2379 123.428 42.7459 123.811C42.254 124.194 41.7247 124.418 41.1581 124.481C40.5914 124.545 40.0287 124.442 39.4699 124.173C39.1393 124.014 38.852 123.816 38.6082 123.58C38.3622 123.344 38.1666 123.076 38.0213 122.777C37.875 122.481 37.7866 122.163 37.7562 121.822C37.7247 121.484 37.7602 121.132 37.8628 120.766Z" fill="#FEFFFE"/>
<path d="M29.4557 113.504C29.9066 112.883 30.4083 112.428 30.9608 112.139C31.5133 111.85 32.0739 111.725 32.6428 111.763C33.2116 111.802 33.7469 112.004 34.2487 112.368C34.7505 112.733 35.1077 113.18 35.3203 113.709C35.5329 114.238 35.5871 114.81 35.4828 115.424C35.3784 116.039 35.1009 116.657 34.65 117.278C34.1991 117.898 33.6975 118.353 33.145 118.642C32.5925 118.931 32.0318 119.057 31.463 119.018C30.8942 118.979 30.3588 118.778 29.857 118.413C29.3552 118.048 28.998 117.602 28.7854 117.073C28.5728 116.543 28.5187 115.972 28.623 115.357C28.7273 114.742 29.0049 114.124 29.4557 113.504ZM30.1452 114.005C29.7751 114.514 29.5479 115.006 29.4637 115.48C29.3776 115.953 29.4138 116.385 29.5722 116.775C29.7287 117.164 29.985 117.488 30.3413 117.746C30.6975 118.005 31.0857 118.15 31.5057 118.18C31.9238 118.208 32.3454 118.109 32.7705 117.883C33.1937 117.655 33.5904 117.286 33.9605 116.777C34.3306 116.267 34.5588 115.776 34.6449 115.303C34.7291 114.829 34.6929 114.397 34.5364 114.008C34.378 113.618 34.1207 113.294 33.7645 113.035C33.4082 112.776 33.0211 112.632 32.603 112.604C32.1829 112.573 31.7613 112.672 31.3381 112.9C30.913 113.127 30.5154 113.495 30.1452 114.005Z" fill="#FEFFFE"/>
<path d="M28.2557 107.547L22.999 112.573L21.2419 110.735C20.8918 110.369 20.6663 110.006 20.5655 109.648C20.463 109.29 20.4623 108.952 20.5632 108.633C20.6624 108.315 20.8404 108.034 21.097 107.788C21.3229 107.572 21.5479 107.434 21.7719 107.374C21.9944 107.312 22.2105 107.305 22.4204 107.353C22.6287 107.4 22.8253 107.479 23.0104 107.59L23.0617 107.541C22.9182 107.37 22.82 107.155 22.7673 106.894C22.7145 106.633 22.7316 106.356 22.8186 106.064C22.9055 105.771 23.0876 105.492 23.3648 105.227C23.6283 104.975 23.9226 104.808 24.2476 104.727C24.5726 104.645 24.9202 104.675 25.2904 104.816C25.6607 104.956 26.0438 105.234 26.4397 105.648L28.2557 107.547ZM27.0824 107.45L25.875 106.188C25.4774 105.772 25.1148 105.553 24.7871 105.533C24.456 105.512 24.175 105.612 23.944 105.833C23.766 106.003 23.6451 106.205 23.5812 106.44C23.5156 106.676 23.5176 106.922 23.5873 107.176C23.6552 107.432 23.7988 107.675 24.018 107.904L25.2549 109.198L27.0824 107.45ZM24.7005 109.728L23.5716 108.547C23.3884 108.355 23.1855 108.219 22.9629 108.137C22.7388 108.053 22.5149 108.031 22.2913 108.071C22.066 108.11 21.861 108.217 21.6762 108.394C21.4452 108.615 21.3262 108.883 21.3191 109.197C21.3103 109.514 21.4728 109.846 21.8066 110.195L22.9551 111.397L24.7005 109.728Z" fill="#FEFFFE"/>
<path d="M13.8653 101.352L19.9349 97.3451L20.4201 98.0801L14.3505 102.087L13.8653 101.352Z" fill="#FEFFFE"/>
<path d="M10.9807 87.5982C11.686 87.2968 12.3499 87.1636 12.9726 87.1987C13.5952 87.2338 14.1407 87.4139 14.6092 87.7389C15.0776 88.0638 15.4337 88.5115 15.6775 89.0819C15.9213 89.6522 15.9988 90.219 15.9099 90.7822C15.8211 91.3454 15.5743 91.8641 15.1694 92.3384C14.7645 92.8127 14.2094 93.2006 13.5041 93.502C12.7987 93.8035 12.1348 93.9367 11.5122 93.9016C10.8895 93.8664 10.344 93.6864 9.87554 93.3614C9.40708 93.0364 9.05096 92.5887 8.80719 92.0184C8.56341 91.448 8.48593 90.8813 8.57476 90.3181C8.66359 89.7549 8.91045 89.2362 9.31534 88.7619C9.72023 88.2876 10.2753 87.8997 10.9807 87.5982ZM11.3156 88.3819C10.7366 88.6294 10.2892 88.9352 9.97368 89.2992C9.65719 89.661 9.46688 90.0501 9.40275 90.4662C9.33768 90.8802 9.39169 91.2897 9.56475 91.6946C9.73782 92.0995 9.99691 92.4226 10.342 92.6638C10.6862 92.9029 11.0989 93.0342 11.5801 93.0576C12.0604 93.0789 12.59 92.9658 13.1691 92.7183C13.7481 92.4708 14.1959 92.1662 14.5124 91.8043C14.828 91.4403 15.0183 91.0513 15.0834 90.6373C15.1475 90.2211 15.093 89.8106 14.92 89.4057C14.7469 89.0008 14.4883 88.6788 14.1441 88.4397C13.7989 88.1984 13.3862 88.0672 12.906 88.0459C12.4248 88.0224 11.8947 88.1344 11.3156 88.3819Z" fill="#FEFFFE"/>
<path d="M7.53984 67.8485L8.3203 67.8135L8.46305 70.9921L7.68259 71.0271L7.53984 67.8485Z" fill="#FEFFFE"/>
<path d="M13.1012 51.9537L6.18439 49.7063L6.94376 47.3692C7.11934 46.8288 7.35577 46.4153 7.65306 46.1285C7.9481 45.841 8.28255 45.6659 8.65641 45.6032C9.03026 45.5405 9.42096 45.5753 9.82849 45.7077C10.236 45.8401 10.5703 46.0409 10.8314 46.3099C11.0925 46.5789 11.2571 46.915 11.3253 47.318C11.3913 47.7203 11.3372 48.1893 11.1631 48.7252L10.5485 50.6165L9.79202 50.3707L10.3978 48.5064C10.5177 48.1372 10.5603 47.8224 10.5254 47.5621C10.4912 47.2996 10.3915 47.0855 10.2262 46.9198C10.0595 46.7511 9.83767 46.6218 9.56073 46.5318C9.28379 46.4418 9.02492 46.415 8.78413 46.4512C8.54333 46.4875 8.3297 46.601 8.14323 46.7919C7.95452 46.982 7.79944 47.2639 7.67799 47.6376L7.19955 49.1102L13.3733 51.1161L13.1012 51.9537ZM11.0519 47.6884L14.7121 46.9958L14.396 47.9685L10.7446 48.6341L11.0519 47.6884Z" fill="#FEFFFE"/>
<path d="M16.9174 42.0847L10.5131 38.6384L12.593 34.7733L13.281 35.1435L11.6184 38.2331L13.7823 39.3976L15.3372 36.5081L16.0252 36.8783L14.4703 39.7678L16.6468 40.939L18.3363 37.7994L19.0242 38.1696L16.9174 42.0847Z" fill="#FEFFFE"/>
<path d="M22.2213 33.475L16.5353 28.9405L19.2542 25.5311L19.865 26.0182L17.6952 28.7391L19.6164 30.2712L21.5825 27.8058L22.1933 28.2929L20.2272 30.7583L22.7704 32.7864L22.2213 33.475Z" fill="#FEFFFE"/>
<path d="M28.901 26.0281L24.116 20.5512L27.4214 17.6634L27.9354 18.2517L25.2932 20.5601L26.9101 22.4107L29.3811 20.2519L29.8951 20.8402L27.4241 22.9991L29.0502 24.8603L31.7352 22.5146L32.2492 23.1029L28.901 26.0281Z" fill="#FEFFFE"/>
<path d="M36.4009 20.1269L32.6707 13.8837L34.7803 12.6233C35.268 12.3319 35.7182 12.176 36.1307 12.1556C36.5421 12.1333 36.9091 12.2214 37.2319 12.4202C37.5548 12.6189 37.8261 12.9022 38.0458 13.27C38.2656 13.6379 38.3853 14.009 38.4049 14.3834C38.4245 14.7578 38.3274 15.1191 38.1136 15.4675C37.8986 15.8138 37.5492 16.1315 37.0655 16.4205L35.3584 17.4405L34.9504 16.7576L36.6332 15.7522C36.9665 15.5531 37.2056 15.344 37.3505 15.125C37.4975 14.9048 37.5633 14.678 37.5479 14.4445C37.5333 14.2078 37.4514 13.9644 37.302 13.7145C37.1527 13.4645 36.9754 13.2739 36.7702 13.1428C36.565 13.0117 36.3294 12.9567 36.0634 12.9777C35.7962 12.9967 35.494 13.107 35.1566 13.3085L33.8275 14.1026L37.1569 19.6752L36.4009 20.1269ZM37.664 15.5665L40.8761 17.4532L39.9981 17.9777L36.8104 16.0765L37.664 15.5665Z" fill="#FEFFFE"/>
<path d="M45.7704 15.2063L43.215 8.39729L47.3243 6.85503L47.5988 7.58647L44.314 8.81927L45.1775 11.12L48.2495 9.96702L48.524 10.6984L45.452 11.8514L46.3204 14.1654L49.6584 12.9126L49.9329 13.6441L45.7704 15.2063ZM45.7249 6.75737L44.684 6.086L44.3419 7.27645L43.5971 7.55595L43.5772 7.50276L44.1353 5.7154L44.8534 5.44588L46.4497 6.42468L46.4697 6.47787L45.7249 6.75737Z" fill="#FEFFFE"/>
<path d="M58.6775 4.2301L59.9761 11.3859L59.1375 11.5381L54.2185 6.6273L54.1487 6.63998L55.1683 12.2584L54.3017 12.4157L53.0031 5.25984L53.8417 5.10766L58.7772 10.0299L58.8471 10.0173L57.825 4.38481L58.6775 4.2301Z" fill="#FEFFFE"/>
<path d="M70.2473 6H69.3666C69.3145 5.74669 69.2234 5.52415 69.0931 5.33239C68.9653 5.14063 68.8091 4.97964 68.6244 4.84943C68.4421 4.71686 68.2397 4.61742 68.0172 4.55114C67.7946 4.48485 67.5626 4.4517 67.3211 4.4517C66.8808 4.4517 66.4819 4.56297 66.1244 4.78551C65.7693 5.00805 65.4864 5.33594 65.2757 5.76918C65.0673 6.20241 64.9632 6.7339 64.9632 7.36364C64.9632 7.99337 65.0673 8.52486 65.2757 8.9581C65.4864 9.39134 65.7693 9.71922 66.1244 9.94176C66.4819 10.1643 66.8808 10.2756 67.3211 10.2756C67.5626 10.2756 67.7946 10.2424 68.0172 10.1761C68.2397 10.1098 68.4421 10.0116 68.6244 9.88139C68.8091 9.74882 68.9653 9.58665 69.0931 9.39489C69.2234 9.20076 69.3145 8.97822 69.3666 8.72727H70.2473C70.181 9.09896 70.0602 9.43158 69.885 9.72514C69.7099 10.0187 69.4921 10.2685 69.2316 10.4744C68.9712 10.678 68.6788 10.8331 68.3545 10.9396C68.0325 11.0462 67.6881 11.0994 67.3211 11.0994C66.7009 11.0994 66.1493 10.9479 65.6663 10.6449C65.1833 10.3419 64.8034 9.91098 64.5264 9.35227C64.2494 8.79356 64.1109 8.13068 64.1109 7.36364C64.1109 6.59659 64.2494 5.93371 64.5264 5.375C64.8034 4.81629 65.1833 4.38542 65.6663 4.08239C66.1493 3.77936 66.7009 3.62784 67.3211 3.62784C67.6881 3.62784 68.0325 3.68111 68.3545 3.78764C68.6788 3.89418 68.9712 4.05043 69.2316 4.25639C69.4921 4.45999 69.7099 4.70857 69.885 5.00213C70.0602 5.29332 70.181 5.62595 70.2473 6Z" fill="#FEFFFE"/>
<path d="M79.2041 4.87945L77.9055 12.0353L77.039 11.8781L78.3376 4.7222L79.2041 4.87945Z" fill="#FEFFFE"/>
<path d="M85.0895 13.9127L84.2251 13.5883L89.2807 7.71764L90.1318 8.03708L90.0765 15.7844L89.2121 15.46L89.3286 8.96454L89.2754 8.94458L85.0895 13.9127ZM86.4069 11.3727L89.8912 12.6804L89.6167 13.4119L86.1324 12.1042L86.4069 11.3727Z" fill="#FEFFFE"/>
<path d="M102.694 23.6671L107.479 18.1903L110.784 21.0781L110.27 21.6664L107.628 19.358L106.011 21.2086L108.482 23.3675L107.968 23.9558L105.497 21.797L103.871 23.6582L106.556 26.004L106.042 26.5923L102.694 23.6671Z" fill="#FEFFFE"/>
<path d="M114.653 25.0358L115.308 25.8576L112.129 31.5539L112.182 31.6206L118.443 29.789L119.099 30.6108L113.413 35.1452L112.899 34.5011L117.219 31.056L117.175 31.0005L111.438 32.6687L110.942 32.0468L113.845 26.8248L113.8 26.7692L109.48 30.2144L108.967 29.5703L114.653 25.0358Z" fill="#FEFFFE"/>
<path d="M119.749 47.4945L126.666 45.2471L127.452 47.6653C127.608 48.1471 127.654 48.5716 127.589 48.9387C127.526 49.305 127.38 49.6101 127.151 49.854C126.924 50.0971 126.641 50.2735 126.304 50.3832C126.006 50.4798 125.744 50.5066 125.516 50.4637C125.288 50.423 125.091 50.3354 124.923 50.2009C124.755 50.0686 124.612 49.9122 124.494 49.7316L124.426 49.7535C124.481 49.9696 124.476 50.2065 124.411 50.4643C124.345 50.7221 124.21 50.964 124.004 51.19C123.799 51.4161 123.514 51.5883 123.149 51.7069C122.802 51.8195 122.465 51.842 122.137 51.7744C121.809 51.7068 121.508 51.5293 121.236 51.242C120.963 50.9547 120.738 50.5386 120.561 49.9937L119.749 47.4945ZM120.764 48.0907L121.304 49.7523C121.482 50.2994 121.714 50.6534 122 50.8143C122.29 50.9767 122.586 51.0086 122.89 50.9098C123.124 50.8337 123.321 50.7038 123.48 50.5201C123.642 50.3357 123.747 50.1137 123.794 49.8543C123.844 49.5942 123.82 49.3132 123.722 49.0115L123.169 47.3093L120.764 48.0907ZM123.899 47.0723L124.403 48.6259C124.485 48.8781 124.609 49.0894 124.774 49.2598C124.939 49.4325 125.132 49.5493 125.35 49.6101C125.57 49.6731 125.801 49.6652 126.045 49.5862C126.349 49.4874 126.572 49.2978 126.715 49.0174C126.86 48.7362 126.858 48.366 126.709 47.9067L126.195 46.3261L123.899 47.0723Z" fill="#FEFFFE"/>
<path d="M130.029 59.3196L122.822 60.2958L122.704 59.4231L129.911 58.4469L130.029 59.3196Z" fill="#FEFFFE"/>
<path d="M126.662 72.9631C125.896 72.9287 125.24 72.7606 124.694 72.4588C124.149 72.1571 123.735 71.7581 123.454 71.2621C123.173 70.766 123.046 70.2082 123.074 69.5885C123.102 68.9689 123.278 68.4246 123.603 67.9557C123.927 67.4869 124.375 67.1266 124.945 66.875C125.516 66.6233 126.184 66.5147 126.95 66.5491C127.717 66.5835 128.373 66.7516 128.918 67.0534C129.464 67.3552 129.877 67.7541 130.159 68.2502C130.44 68.7462 130.566 69.3041 130.538 69.9237C130.511 70.5434 130.334 71.0876 130.01 71.5565C129.686 72.0254 129.238 72.3856 128.668 72.6373C128.097 72.8889 127.429 72.9975 126.662 72.9631ZM126.701 72.1117C127.33 72.14 127.865 72.0586 128.308 71.8675C128.75 71.6788 129.09 71.4109 129.328 71.0638C129.567 70.719 129.696 70.3267 129.715 69.8868C129.735 69.4469 129.642 69.0434 129.436 68.6763C129.229 68.3115 128.914 68.0142 128.491 67.7843C128.068 67.5567 127.541 67.4288 126.912 67.4005C126.283 67.3723 125.747 67.4525 125.305 67.6412C124.863 67.8322 124.523 68.1002 124.285 68.4449C124.046 68.7921 123.917 69.1856 123.897 69.6255C123.878 70.0654 123.971 70.4677 124.177 70.8324C124.384 71.1995 124.698 71.4969 125.122 71.7244C125.545 71.9544 126.071 72.0834 126.701 72.1117Z" fill="#FEFFFE"/>
<path d="M129.636 78.0033L129.402 79.0281L122.967 80.0944L122.948 80.1775L128.284 83.9304L128.05 84.9552L120.959 83.3369L121.143 82.5337L126.53 83.7632L126.545 83.694L121.664 80.2487L121.841 79.4732L127.734 78.487L127.75 78.4177L122.363 77.1882L122.546 76.385L129.636 78.0033Z" fill="#FEFFFE"/>
<path d="M119.457 87.3842L119.82 86.5352L125.458 91.8491L125.1 92.6851L117.363 92.2822L117.726 91.4333L124.21 91.841L124.232 91.7888L119.457 87.3842ZM121.935 88.8142L120.473 92.2363L119.754 91.9293L121.217 88.5072L121.935 88.8142Z" fill="#FEFFFE"/>
<path d="M117.585 102.371C117.909 102.533 118.237 102.543 118.57 102.4C118.903 102.256 119.191 102.001 119.433 101.633C119.611 101.365 119.723 101.101 119.769 100.842C119.813 100.585 119.797 100.35 119.719 100.137C119.64 99.9258 119.504 99.7564 119.31 99.6286C119.148 99.5216 118.983 99.4682 118.816 99.4683C118.649 99.4717 118.487 99.5092 118.329 99.5809C118.173 99.6538 118.026 99.7411 117.888 99.8429C117.752 99.9459 117.632 100.044 117.528 100.137L116.955 100.644C116.809 100.775 116.636 100.913 116.435 101.058C116.232 101.205 116.009 101.326 115.766 101.421C115.522 101.518 115.265 101.561 114.992 101.548C114.719 101.536 114.441 101.435 114.156 101.248C113.828 101.031 113.589 100.75 113.438 100.403C113.285 100.058 113.239 99.6704 113.299 99.2394C113.358 98.8104 113.542 98.3627 113.85 97.8964C114.137 97.4617 114.455 97.1316 114.805 96.9061C115.154 96.6826 115.514 96.5628 115.885 96.5466C116.255 96.5325 116.613 96.6231 116.961 96.8185L116.46 97.5772C116.218 97.4457 115.977 97.3975 115.739 97.4328C115.5 97.4713 115.276 97.5701 115.066 97.7293C114.857 97.8918 114.673 98.0936 114.513 98.3346C114.328 98.6152 114.207 98.8971 114.151 99.1803C114.096 99.4649 114.108 99.7265 114.186 99.9652C114.266 100.205 114.416 100.398 114.638 100.544C114.839 100.677 115.04 100.729 115.241 100.7C115.442 100.671 115.643 100.591 115.843 100.459C116.043 100.327 116.243 100.174 116.444 100L117.15 99.3942C117.599 99.01 118.042 98.763 118.477 98.6534C118.913 98.5437 119.335 98.6238 119.744 98.8938C120.084 99.1181 120.32 99.4056 120.451 99.7563C120.583 100.11 120.617 100.49 120.551 100.894C120.486 101.302 120.325 101.7 120.07 102.087C119.812 102.479 119.512 102.78 119.171 102.992C118.832 103.205 118.483 103.321 118.124 103.339C117.765 103.36 117.428 103.274 117.116 103.082L117.585 102.371Z" fill="#FEFFFE"/>
<path d="M110.473 110.809C110.763 111.027 111.084 111.095 111.437 111.013C111.79 110.932 112.119 110.732 112.423 110.413C112.646 110.181 112.803 109.941 112.894 109.694C112.984 109.45 113.01 109.216 112.972 108.992C112.931 108.77 112.828 108.579 112.66 108.419C112.52 108.285 112.367 108.203 112.202 108.173C112.038 108.146 111.871 108.154 111.703 108.197C111.536 108.241 111.376 108.3 111.222 108.376C111.07 108.453 110.934 108.528 110.815 108.601L110.161 108.997C109.994 109.1 109.799 109.205 109.575 109.312C109.35 109.421 109.109 109.5 108.852 109.549C108.596 109.602 108.334 109.598 108.068 109.537C107.803 109.476 107.546 109.327 107.3 109.092C107.016 108.82 106.83 108.5 106.743 108.132C106.655 107.766 106.679 107.376 106.815 106.963C106.95 106.551 107.21 106.143 107.596 105.739C107.956 105.363 108.329 105.095 108.714 104.936C109.097 104.778 109.472 104.725 109.84 104.775C110.207 104.827 110.543 104.98 110.85 105.234L110.222 105.892C110.007 105.719 109.779 105.629 109.538 105.621C109.297 105.616 109.058 105.673 108.823 105.792C108.588 105.915 108.371 106.08 108.171 106.289C107.939 106.532 107.77 106.788 107.664 107.057C107.559 107.327 107.524 107.586 107.558 107.835C107.594 108.085 107.708 108.302 107.899 108.485C108.074 108.652 108.262 108.739 108.465 108.747C108.668 108.754 108.88 108.71 109.1 108.617C109.321 108.523 109.545 108.408 109.773 108.273L110.576 107.802C111.087 107.505 111.566 107.341 112.015 107.311C112.463 107.28 112.864 107.435 113.218 107.773C113.512 108.055 113.693 108.38 113.76 108.748C113.827 109.12 113.792 109.499 113.655 109.886C113.518 110.276 113.289 110.638 112.968 110.974C112.644 111.313 112.296 111.556 111.922 111.703C111.551 111.852 111.187 111.904 110.831 111.858C110.473 111.814 110.157 111.67 109.884 111.425L110.473 110.809Z" fill="#FEFFFE"/>
<path d="M101.641 111.339L102.388 110.796L104.502 118.249L103.766 118.784L97.3311 114.47L98.0781 113.927L103.435 117.602L103.481 117.569L101.641 111.339ZM103.035 113.837L100.024 116.025L99.5645 115.393L102.575 113.205L103.035 113.837Z" fill="#FEFFFE"/>
<path d="M81.1648 125.026L80.957 124.273L84.0241 123.426L84.232 124.179L81.1648 125.026Z" fill="#FEFFFE"/>
</svg>
