<svg width="122" height="122" viewBox="0 0 122 122" fill="none" xmlns="http://www.w3.org/2000/svg">
<circle cx="61" cy="61" r="61" fill="#17BD57" fill-opacity="0.64"/>
<path d="M54.5958 116.516L55.1585 110.213L55.9155 110.281L55.3529 116.585L54.5958 116.516Z" fill="white"/>
<path d="M43.1818 114.139L44.8518 108.039L45.5609 108.236L47.547 113.943L47.606 113.96L48.9172 109.169L49.6501 109.373L47.98 115.475L47.2709 115.277L45.2763 109.554L45.2171 109.538L43.9027 114.341L43.1818 114.139Z" fill="white"/>
<path d="M34.8292 108.377L35.5141 108.71C35.4597 108.928 35.4472 109.137 35.4767 109.337C35.5043 109.535 35.5656 109.72 35.6603 109.893C35.7525 110.065 35.8727 110.219 36.0209 110.356C36.1691 110.491 36.3371 110.605 36.5249 110.696C36.8674 110.862 37.2192 110.926 37.5806 110.887C37.94 110.846 38.2829 110.696 38.6089 110.436C38.9332 110.175 39.2132 109.797 39.449 109.304C39.6848 108.81 39.8029 108.353 39.8031 107.935C39.8016 107.516 39.7043 107.152 39.5116 106.844C39.3169 106.534 39.0483 106.296 38.7059 106.13C38.5181 106.038 38.3252 105.977 38.1274 105.944C37.9296 105.913 37.7354 105.914 37.5448 105.946C37.3516 105.981 37.1693 106.049 36.9981 106.151C36.8241 106.254 36.6699 106.394 36.5354 106.571L35.8506 106.238C36.0413 105.973 36.2598 105.757 36.506 105.593C36.7522 105.429 37.015 105.316 37.2947 105.252C37.5735 105.191 37.8589 105.18 38.151 105.219C38.4413 105.257 38.7291 105.345 39.0144 105.484C39.4968 105.718 39.869 106.045 40.1311 106.465C40.3932 106.885 40.5272 107.366 40.5335 107.909C40.5396 108.452 40.399 109.023 40.1118 109.625C39.8246 110.226 39.4686 110.694 39.0439 111.028C38.6194 111.361 38.1625 111.556 37.6735 111.611C37.1844 111.666 36.6988 111.576 36.2164 111.342C35.9311 111.204 35.6831 111.032 35.4727 110.827C35.2603 110.621 35.0914 110.388 34.9661 110.127C34.8398 109.87 34.7636 109.593 34.7372 109.297C34.71 109.002 34.7407 108.695 34.8292 108.377Z" fill="white"/>
<path d="M27.5602 102.049C27.9494 101.508 28.3823 101.113 28.8592 100.86C29.3361 100.609 29.82 100.5 30.3109 100.533C30.8019 100.567 31.2639 100.743 31.6971 101.06C32.1302 101.378 32.4385 101.766 32.622 102.227C32.8055 102.687 32.8522 103.185 32.7622 103.72C32.6721 104.255 32.4326 104.793 32.0434 105.332C31.6543 105.873 31.2212 106.268 30.7444 106.52C30.2676 106.772 29.7837 106.88 29.2926 106.847C28.8017 106.814 28.3397 106.638 27.9065 106.321C27.4734 106.003 27.1651 105.615 26.9816 105.154C26.7981 104.693 26.7513 104.196 26.8414 103.661C26.9315 103.126 27.171 102.588 27.5602 102.049ZM28.1553 102.484C27.8358 102.928 27.6398 103.356 27.5671 103.769C27.4928 104.18 27.5239 104.556 27.6607 104.895C27.7957 105.234 28.0171 105.515 28.3245 105.74C28.632 105.966 28.967 106.091 29.3295 106.118C29.6904 106.143 30.0543 106.057 30.4212 105.859C30.7864 105.661 31.1288 105.34 31.4483 104.896C31.7678 104.453 31.9647 104.026 32.039 103.614C32.1117 103.201 32.0805 102.826 31.9454 102.488C31.8086 102.148 31.5866 101.866 31.2791 101.641C30.9716 101.415 30.6375 101.29 30.2766 101.264C29.9141 101.238 29.5501 101.324 29.1849 101.524C28.8179 101.721 28.4748 102.041 28.1553 102.484Z" fill="white"/>
<path d="M26.5112 96.8532L21.9741 101.227L20.4575 99.6276C20.1553 99.3089 19.9607 98.9934 19.8738 98.6811C19.7852 98.3702 19.7846 98.0758 19.8718 97.798C19.9574 97.5216 20.1109 97.2766 20.3325 97.0631C20.5274 96.8751 20.7216 96.7549 20.915 96.7025C21.107 96.6486 21.2935 96.6426 21.4747 96.6845C21.6545 96.7251 21.8242 96.7937 21.9839 96.8906L22.0282 96.8479C21.9043 96.6994 21.8196 96.5117 21.7741 96.2848C21.7286 96.0579 21.7433 95.8171 21.8184 95.5623C21.8934 95.3075 22.0505 95.0648 22.2898 94.8342C22.5173 94.6149 22.7712 94.4699 23.0518 94.399C23.3323 94.3281 23.6322 94.3538 23.9519 94.4762C24.2714 94.5985 24.6021 94.8399 24.9438 95.2003L26.5112 96.8532ZM25.4985 96.7691L24.4564 95.6701C24.1133 95.3082 23.8003 95.1183 23.5174 95.1002C23.2317 95.0821 22.989 95.1692 22.7897 95.3613C22.6361 95.5094 22.5318 95.6855 22.4766 95.8897C22.42 96.0954 22.4218 96.3089 22.4818 96.5303C22.5405 96.7531 22.6644 96.9643 22.8536 97.1639L23.9212 98.2897L25.4985 96.7691ZM23.4426 98.7509L22.4683 97.7234C22.3101 97.5566 22.135 97.4376 21.9429 97.3662C21.7495 97.2933 21.5563 97.2744 21.3632 97.3094C21.1688 97.3428 20.9919 97.4364 20.8324 97.5903C20.633 97.7824 20.5302 98.0154 20.5242 98.2893C20.5166 98.5645 20.6568 98.854 20.9449 99.1578L21.9361 100.203L23.4426 98.7509Z" fill="white"/>
<path d="M14.0809 91.4473L19.3197 87.9606L19.7385 88.6002L14.4997 92.0869L14.0809 91.4473Z" fill="white"/>
<path d="M11.5823 79.4642C12.191 79.2018 12.7641 79.0859 13.3015 79.1165C13.8389 79.147 14.3097 79.3037 14.7141 79.5865C15.1184 79.8693 15.4258 80.2589 15.6362 80.7552C15.8466 81.2516 15.9135 81.7448 15.8368 82.235C15.7602 82.7251 15.5471 83.1765 15.1976 83.5893C14.8481 84.0019 14.369 84.3395 13.7602 84.6019C13.1514 84.8643 12.5784 84.9801 12.041 84.9496C11.5036 84.919 11.0328 84.7624 10.6284 84.4795C10.2241 84.1967 9.91672 83.8071 9.70632 83.3108C9.4959 82.8145 9.42903 82.3212 9.50571 81.8311C9.58237 81.3409 9.79545 80.8896 10.1449 80.4768C10.4944 80.0641 10.9735 79.7265 11.5823 79.4642ZM11.8714 80.1462C11.3716 80.3615 10.9855 80.6276 10.7131 80.9444C10.44 81.2593 10.2757 81.5978 10.2203 81.9601C10.1642 82.3202 10.2108 82.6767 10.3602 83.029C10.5095 83.3814 10.7332 83.6626 11.0311 83.8725C11.3282 84.0806 11.6843 84.1948 12.0997 84.2152C12.5142 84.2337 12.9713 84.1353 13.4711 83.9199C13.9709 83.7045 14.3574 83.4394 14.6305 83.1244C14.903 82.8077 15.0672 82.4692 15.1234 82.1089C15.1787 81.7467 15.1317 81.3895 14.9823 81.037C14.833 80.6847 14.6097 80.4044 14.3126 80.1965C14.0148 79.9864 13.6586 79.8722 13.2441 79.8537C12.8287 79.8333 12.3712 79.9307 11.8714 80.1462Z" fill="white"/>
<path d="M8.6033 62.2424L9.27692 62.2119L9.40014 64.978L8.72651 65.0086L8.6033 62.2424Z" fill="white"/>
<path d="M13.4085 48.376L7.43849 46.4201L8.09392 44.3863C8.24547 43.9161 8.44954 43.5562 8.70613 43.3066C8.96078 43.0564 9.24944 42.904 9.57213 42.8494C9.89481 42.7949 10.232 42.8251 10.5838 42.9404C10.9355 43.0557 11.2241 43.2303 11.4494 43.4645C11.6748 43.6986 11.8168 43.991 11.8757 44.3417C11.9326 44.6918 11.8859 45.1 11.7357 45.5663L11.2052 47.2123L10.5523 46.9984L11.0751 45.3759C11.1787 45.0546 11.2154 44.7807 11.1852 44.5542C11.1557 44.3257 11.0697 44.1394 10.9271 43.9952C10.7832 43.8484 10.5917 43.7359 10.3527 43.6576C10.1136 43.5793 9.8902 43.5559 9.68237 43.5874C9.47453 43.619 9.29014 43.7178 9.1292 43.8839C8.96632 44.0493 8.83246 44.2946 8.72765 44.6199L8.31469 45.9014L13.6433 47.6471L13.4085 48.376ZM11.6397 44.6641L14.7988 44.0614L14.5261 44.9078L11.3745 45.487L11.6397 44.6641Z" fill="white"/>
<path d="M16.7109 39.7713L11.1832 36.7722L12.9784 33.4086L13.5723 33.7308L12.1373 36.4194L14.005 37.4328L15.347 34.9183L15.9408 35.2404L14.5988 37.755L16.4773 38.7742L17.9356 36.0419L18.5294 36.3641L16.7109 39.7713Z" fill="white"/>
<path d="M21.2978 32.2642L16.3901 28.318L18.7369 25.3511L19.264 25.775L17.3913 28.1427L19.0495 29.4761L20.7465 27.3306L21.2737 27.7545L19.5768 29.9001L21.7718 31.665L21.2978 32.2642Z" fill="white"/>
<path d="M27.0762 25.7712L22.9462 21.0049L25.7991 18.4918L26.2428 19.0038L23.9622 21.0127L25.3578 22.6232L27.4906 20.7444L27.9342 21.2564L25.8014 23.1352L27.205 24.7549L29.5224 22.7135L29.9661 23.2255L27.0762 25.7712Z" fill="white"/>
<path d="M33.5598 20.6255L30.3402 15.1923L32.161 14.0955C32.582 13.8419 32.9705 13.7062 33.3266 13.6885C33.6816 13.669 33.9984 13.7458 34.277 13.9187C34.5556 14.0916 34.7898 14.3382 34.9795 14.6583C35.1692 14.9784 35.2725 15.3014 35.2895 15.6271C35.3064 15.953 35.2225 16.2674 35.038 16.5706C34.8524 16.872 34.5509 17.1484 34.1334 17.3999L32.6599 18.2876L32.3078 17.6933L33.7602 16.8184C34.0479 16.6451 34.2543 16.4632 34.3794 16.2726C34.5062 16.081 34.563 15.8836 34.5498 15.6804C34.5371 15.4744 34.4664 15.2626 34.3376 15.045C34.2086 14.8275 34.0556 14.6616 33.8785 14.5475C33.7013 14.4335 33.498 14.3856 33.2684 14.4039C33.0379 14.4204 32.7769 14.5164 32.4858 14.6918L31.3386 15.3829L34.2123 20.2324L33.5598 20.6255ZM34.6499 16.6568L37.4223 18.2986L36.6645 18.7551L33.9132 17.1007L34.6499 16.6568Z" fill="white"/>
<path d="M41.6609 16.3363L39.4552 10.4107L43.0021 9.06859L43.239 9.70512L40.4039 10.778L41.1492 12.7802L43.8006 11.7768L44.0375 12.4133L41.386 13.4167L42.1356 15.4305L45.0167 14.3402L45.2537 14.9768L41.6609 16.3363ZM41.6217 8.98361L40.7233 8.39934L40.4279 9.43533L39.7851 9.67857L39.7679 9.63228L40.2496 8.07684L40.8694 7.84229L42.2472 8.69407L42.2644 8.74037L41.6217 8.98361Z" fill="white"/>
<path d="M52.819 6.77991L53.9398 13.0073L53.216 13.1397L48.9703 8.86607L48.91 8.8771L49.7901 13.7666L49.0422 13.9035L47.9214 7.67604L48.6451 7.54361L52.905 11.8272L52.9653 11.8162L52.0831 6.91454L52.819 6.77991Z" fill="white"/>
<path d="M62.8229 8.31839H62.0627C62.0178 8.09795 61.9391 7.90428 61.8268 7.7374C61.7164 7.57052 61.5816 7.43043 61.4222 7.31711C61.2648 7.20174 61.0901 7.11521 60.8981 7.05752C60.706 6.99983 60.5058 6.97099 60.2973 6.97099C59.9172 6.97099 59.5729 7.06783 59.2644 7.26149C58.9579 7.45514 58.7137 7.74049 58.5318 8.11752C58.352 8.49454 58.2621 8.95707 58.2621 9.50509C58.2621 10.0531 58.352 10.5156 58.5318 10.8927C58.7137 11.2697 58.9579 11.555 59.2644 11.7487C59.5729 11.9424 59.9172 12.0392 60.2973 12.0392C60.5058 12.0392 60.706 12.0104 60.8981 11.9527C61.0901 11.895 61.2648 11.8095 61.4222 11.6962C61.5816 11.5808 61.7164 11.4397 61.8268 11.2728C61.9391 11.1038 62.0178 10.9102 62.0627 10.6918H62.8229C62.7657 11.0153 62.6614 11.3047 62.5103 11.5602C62.3591 11.8157 62.1711 12.033 61.9463 12.2123C61.7215 12.3894 61.4692 12.5244 61.1892 12.6171C60.9113 12.7098 60.614 12.7562 60.2973 12.7562C59.7619 12.7562 59.2859 12.6243 58.869 12.3606C58.4521 12.0969 58.1242 11.7219 57.8851 11.2357C57.6461 10.7495 57.5265 10.1726 57.5265 9.50509C57.5265 8.83757 57.6461 8.2607 57.8851 7.77449C58.1242 7.28827 58.4521 6.91331 58.869 6.64959C59.2859 6.38588 59.7619 6.25403 60.2973 6.25403C60.614 6.25403 60.9113 6.30038 61.1892 6.39309C61.4692 6.4858 61.7215 6.62178 61.9463 6.80102C62.1711 6.9782 62.3591 7.19452 62.5103 7.45C62.6614 7.70341 62.7657 7.99287 62.8229 8.31839Z" fill="white"/>
<path d="M70.5729 7.34547L69.452 13.5728L68.7041 13.436L69.825 7.20862L70.5729 7.34547Z" fill="white"/>
<path d="M75.6694 15.2108L74.9234 14.9285L79.2869 9.81958L80.0215 10.0976L79.9739 16.8396L79.2278 16.5573L79.3283 10.9047L79.2823 10.8873L75.6694 15.2108ZM76.8065 13.0004L79.8138 14.1384L79.5769 14.7749L76.5696 13.6369L76.8065 13.0004Z" fill="white"/>
<path d="M90.8952 23.718L95.0253 18.9518L97.8782 21.465L97.4345 21.977L95.154 19.968L93.7585 21.5785L95.8913 23.4572L95.4476 23.9692L93.3149 22.0905L91.9113 23.7103L94.2287 25.7517L93.7851 26.2637L90.8952 23.718Z" fill="white"/>
<path d="M101.227 24.9215L101.792 25.6367L99.0486 30.5939L99.0947 30.6519L104.499 29.0579L105.065 29.7731L100.156 33.7192L99.7132 33.1587L103.442 30.1605L103.404 30.1122L98.4521 31.564L98.0234 31.0228L100.529 26.4784L100.491 26.43L96.7625 29.4281L96.3192 28.8676L101.227 24.9215Z" fill="white"/>
<path d="M105.646 44.4956L111.616 42.5398L112.294 44.6442C112.429 45.0635 112.468 45.433 112.413 45.7525C112.358 46.0713 112.232 46.3368 112.034 46.5489C111.838 46.7605 111.594 46.914 111.303 47.0095C111.046 47.0935 110.82 47.1169 110.623 47.0796C110.426 47.0442 110.256 46.9679 110.111 46.8509C109.966 46.7357 109.843 46.5996 109.741 46.4425L109.682 46.4615C109.73 46.6496 109.725 46.8557 109.669 47.0801C109.612 47.3044 109.495 47.5149 109.318 47.7117C109.141 47.9084 108.895 48.0582 108.58 48.1614C108.281 48.2594 107.99 48.2791 107.707 48.2202C107.423 48.1613 107.164 48.0069 106.929 47.7568C106.693 47.5069 106.499 47.1448 106.347 46.6706L105.646 44.4956ZM106.521 45.0144L106.987 46.4605C107.141 46.9366 107.341 47.2446 107.589 47.3847C107.838 47.526 108.094 47.5538 108.357 47.4678C108.558 47.4016 108.729 47.2885 108.866 47.1286C109.005 46.9681 109.096 46.775 109.137 46.5492C109.18 46.3229 109.16 46.0783 109.074 45.8158L108.598 44.3344L106.521 45.0144ZM109.227 44.1282L109.663 45.4802C109.733 45.6997 109.839 45.8836 109.982 46.0319C110.125 46.1822 110.291 46.2838 110.48 46.3367C110.67 46.3916 110.869 46.3846 111.079 46.3159C111.341 46.2299 111.534 46.065 111.658 45.8209C111.783 45.5763 111.781 45.2541 111.652 44.8544L111.209 43.4788L109.227 44.1282Z" fill="white"/>
<path d="M114.519 54.8045L108.298 55.654L108.197 54.8945L114.417 54.0449L114.519 54.8045Z" fill="white"/>
<path d="M111.612 66.6944C110.951 66.6644 110.384 66.5181 109.913 66.2555C109.442 65.9928 109.086 65.6457 108.843 65.214C108.6 64.7823 108.491 64.2968 108.515 63.7576C108.539 63.2184 108.692 62.7447 108.972 62.3366C109.252 61.9287 109.637 61.6151 110.13 61.3961C110.622 61.1772 111.199 61.0826 111.861 61.1126C112.522 61.1426 113.089 61.2888 113.56 61.5514C114.03 61.814 114.387 62.1612 114.63 62.5929C114.872 63.0246 114.982 63.51 114.958 64.0493C114.934 64.5886 114.781 65.0622 114.501 65.4702C114.221 65.8783 113.836 66.1917 113.343 66.4108C112.851 66.6298 112.273 66.7242 111.612 66.6944ZM111.645 65.9534C112.188 65.9779 112.65 65.9072 113.032 65.7409C113.414 65.5767 113.707 65.3435 113.913 65.0415C114.119 64.7414 114.23 64.4 114.247 64.0172C114.264 63.6343 114.184 63.2832 114.005 62.9637C113.828 62.6463 113.556 62.3875 113.19 62.1874C112.825 61.9894 112.37 61.8781 111.828 61.8536C111.285 61.8289 110.822 61.8987 110.441 62.0629C110.059 62.2292 109.766 62.4623 109.559 62.7624C109.354 63.0645 109.243 63.4069 109.226 63.7898C109.208 64.1726 109.289 64.5227 109.467 64.8402C109.646 65.1596 109.917 65.4184 110.283 65.6164C110.648 65.8165 111.103 65.9288 111.645 65.9534Z" fill="white"/>
<path d="M114.179 71.098L113.978 71.9899L108.423 72.9177L108.407 72.9901L113.012 76.2561L112.81 77.1479L106.69 75.7396L106.848 75.0406L111.498 76.1106L111.511 76.0503L107.298 73.052L107.451 72.3771L112.537 71.519L112.551 71.4586L107.901 70.3886L108.06 69.6897L114.179 71.098Z" fill="white"/>
<path d="M105.387 79.2784L105.699 78.5396L110.565 83.164L110.258 83.8915L103.58 83.541L103.893 82.8021L109.488 83.1569L109.508 83.1114L105.387 79.2784ZM107.525 80.5228L106.263 83.5009L105.643 83.2338L106.906 80.2557L107.525 80.5228Z" fill="white"/>
<path d="M103.762 92.3351C104.041 92.4767 104.325 92.4851 104.613 92.3603C104.9 92.2356 105.148 92.0133 105.357 91.6935C105.51 91.4596 105.607 91.2301 105.647 91.0048C105.685 90.7811 105.672 90.5767 105.604 90.3913C105.535 90.2075 105.418 90.0602 105.251 89.9489C105.112 89.8559 104.969 89.8094 104.825 89.8095C104.681 89.8124 104.54 89.845 104.404 89.9074C104.27 89.9708 104.143 90.0468 104.023 90.1354C103.906 90.2251 103.802 90.3104 103.712 90.3914L103.218 90.8326C103.092 90.9463 102.942 91.0664 102.77 91.1929C102.595 91.3211 102.402 91.4263 102.191 91.5084C101.982 91.5934 101.759 91.6304 101.524 91.6195C101.289 91.6086 101.048 91.5213 100.803 91.3579C100.52 91.1696 100.313 90.9244 100.182 90.6228C100.051 90.3228 100.011 89.9853 100.063 89.6103C100.114 89.2368 100.272 88.8473 100.538 88.4415C100.785 88.0633 101.061 87.776 101.363 87.5797C101.664 87.3852 101.975 87.2809 102.295 87.2669C102.614 87.2545 102.923 87.3334 103.223 87.5034L102.792 88.1637C102.582 88.0492 102.374 88.0074 102.168 88.038C101.963 88.0715 101.769 88.1575 101.588 88.2961C101.408 88.4375 101.249 88.6131 101.111 88.8229C100.951 89.067 100.847 89.3124 100.798 89.5588C100.751 89.8065 100.761 90.0342 100.829 90.2419C100.898 90.4506 101.027 90.6186 101.218 90.7457C101.392 90.8615 101.566 90.9068 101.74 90.8813C101.912 90.856 102.086 90.7861 102.258 90.6715C102.431 90.557 102.605 90.4239 102.777 90.2723L103.386 89.745C103.775 89.4106 104.156 89.1956 104.532 89.1002C104.908 89.0048 105.273 89.0746 105.626 89.3095C105.919 89.5047 106.122 89.7549 106.235 90.0601C106.35 90.3682 106.378 90.6983 106.322 91.0505C106.266 91.4056 106.127 91.7517 105.907 92.0887C105.684 92.4292 105.425 92.6914 105.131 92.8757C104.838 93.061 104.537 93.1619 104.227 93.1781C103.918 93.1961 103.627 93.1214 103.357 92.9542L103.762 92.3351Z" fill="white"/>
<path d="M97.6143 99.6919C97.8642 99.8818 98.1414 99.9407 98.4464 99.8692C98.7513 99.7986 99.0352 99.6248 99.298 99.3478C99.4898 99.1453 99.625 98.9368 99.7046 98.7222C99.7823 98.5092 99.8043 98.3054 99.7708 98.1109C99.7362 97.9179 99.6461 97.7516 99.5013 97.6121C99.3804 97.4953 99.2491 97.424 99.1071 97.3981C98.9642 97.375 98.8213 97.3819 98.6756 97.4188C98.5317 97.4569 98.3936 97.5089 98.2613 97.5745C98.1299 97.6416 98.0119 97.707 97.9093 97.7705L97.3451 98.1155C97.2011 98.2048 97.0326 98.296 96.8395 98.3893C96.6451 98.484 96.4371 98.5528 96.2155 98.5957C95.994 98.6416 95.7684 98.6379 95.5389 98.5848C95.3093 98.5317 95.0883 98.4026 94.8755 98.1976C94.6304 97.9613 94.4703 97.6829 94.3952 97.3626C94.3187 97.0438 94.3394 96.7045 94.4571 96.3448C94.5735 95.9866 94.7983 95.6319 95.1314 95.2804C95.4421 94.9528 95.7636 94.7196 96.0958 94.581C96.4266 94.4438 96.7507 94.3972 97.0681 94.441C97.3842 94.4862 97.6748 94.6196 97.94 94.8409L97.3977 95.4127C97.2122 95.2625 97.0153 95.1839 96.8071 95.1769C96.5989 95.1728 96.3933 95.2227 96.1904 95.3264C95.9875 95.433 95.7999 95.5771 95.6277 95.7588C95.4272 95.9702 95.2811 96.1929 95.1895 96.4266C95.0994 96.6618 95.069 96.8876 95.0983 97.1041C95.1292 97.322 95.2273 97.5106 95.3928 97.6701C95.5434 97.8153 95.7063 97.891 95.8813 97.8973C96.0563 97.9035 96.239 97.8659 96.4293 97.7844C96.6198 97.7028 96.8134 97.603 97.0102 97.4848L97.7035 97.0757C98.1443 96.8165 98.5576 96.6738 98.945 96.6476C99.3315 96.6214 99.6777 96.7556 99.9837 97.0504C100.238 97.2953 100.393 97.578 100.451 97.8988C100.509 98.2224 100.479 98.5524 100.361 98.8888C100.243 99.2281 100.045 99.5436 99.7679 99.8353C99.4888 100.13 99.1877 100.342 98.8654 100.47C98.5442 100.599 98.2306 100.645 97.9227 100.605C97.6143 100.566 97.342 100.441 97.1059 100.228L97.6143 99.6919Z" fill="white"/>
<path d="M89.9757 100.165L90.6205 99.6923L92.4454 106.179L91.8106 106.644L86.2562 102.89L86.901 102.417L91.5245 105.616L91.5642 105.587L89.9757 100.165ZM91.1789 102.34L88.5803 104.243L88.1839 103.693L90.7827 101.79L91.1789 102.34Z" fill="white"/>
<path d="M72.2733 112.09L72.0939 111.436L74.7412 110.699L74.9205 111.355L72.2733 112.09Z" fill="white"/>
</svg>
